<svg width="468.000000" height="473.000000" viewBox="0 0 468 473" fill="none" xmlns="http://www.w3.org/2000/svg" xmlns:xlink="http://www.w3.org/1999/xlink">
	<desc>
			Created with Pixso.
	</desc>
	<defs>
		<filter id="filter_1_25937_dd" x="0.000000" y="0.000000" width="468.000000" height="473.000000" filterUnits="userSpaceOnUse" color-interpolation-filters="sRGB">
			<feFlood flood-opacity="0" result="BackgroundImageFix"/>
			<feColorMatrix in="SourceAlpha" type="matrix" values="0 0 0 0 0 0 0 0 0 0 0 0 0 0 0 0 0 0 127 0" result="hardAlpha"/>
			<feOffset dx="6" dy="6"/>
			<feGaussianBlur stdDeviation="18"/>
			<feComposite in2="hardAlpha" operator="out" k2="-1" k3="1"/>
			<feColorMatrix type="matrix" values="0 0 0 0 0 0 0 0 0 0 0 0 0 0 0 0 0 0 0.051 0"/>
			<feBlend mode="normal" in2="BackgroundImageFix" result="effect_dropShadow_1"/>
			<feBlend mode="normal" in="SourceGraphic" in2="effect_dropShadow_1" result="shape"/>
		</filter>
	</defs>
	<g filter="url(#filter_1_25937_dd)">
		<rect id="Bg" x="48.000000" y="48.000000" rx="14.000000" width="360.000000" height="365.000000" fill="#FFFFFF" fill-opacity="1.000000"/>
		<rect id="Bg" x="48.000000" y="48.000000" rx="14.000000" width="360.000000" height="365.000000" stroke="#979797" stroke-opacity="0" stroke-width="0.000000"/>
	</g>
	<path id="Shape" d="M95 362.06C95 362.06 108.75 319.35 115.45 302.37C122.54 284.38 129.5 269.66 136.32 258.2C143.32 246.43 150.18 238.1 156.9 233.22C162.39 229.22 176.21 228.63 177.7 229.06C185.48 231.31 192.09 236.79 198.37 243.83C205.37 251.67 211.96 261.44 219.27 270.84C225.39 278.69 232.01 286.28 239.8 292.26C245.85 296.89 252.62 300.56 260.4 302.61C264.86 303.78 279.06 304.26 281.17 303.93C288.1 302.83 295.01 299.98 301.78 295.77C309 291.26 316.07 285.2 322.83 278.04C330.12 270.33 337.05 261.35 343.48 251.68C351.25 239.97 358.26 227.26 364.22 214.54C376.97 187.34 384.88 160.18 385 143.06" stroke="#00B69B" stroke-opacity="1.000000" stroke-width="4.000000" stroke-linecap="round"/>
	<path id="Point" d="M94 368C96.21 368 98 366.2 98 364C98 361.79 96.21 360 94 360C91.78 360 90 361.79 90 364C90 366.2 91.78 368 94 368Z" fill="#00B69B" fill-opacity="1.000000" fill-rule="evenodd"/>
	<path id="Point" d="M98 364C98 361.79 96.21 360 94 360C91.78 360 90 361.79 90 364C90 366.2 91.78 368 94 368C96.21 368 98 366.2 98 364Z" stroke="#FFFFFF" stroke-opacity="1.000000" stroke-width="1.400000"/>
	<path id="Point" d="M114 309C116.21 309 118 307.2 118 305C118 302.79 116.21 301 114 301C111.78 301 110 302.79 110 305C110 307.2 111.78 309 114 309Z" fill="#00B69B" fill-opacity="1.000000" fill-rule="evenodd"/>
	<path id="Point" d="M118 305C118 302.79 116.21 301 114 301C111.78 301 110 302.79 110 305C110 307.2 111.78 309 114 309C116.21 309 118 307.2 118 305Z" stroke="#FFFFFF" stroke-opacity="1.000000" stroke-width="1.400000"/>
	<path id="Point" d="M133 267C135.21 267 137 265.2 137 263C137 260.79 135.21 259 133 259C130.78 259 129 260.79 129 263C129 265.2 130.78 267 133 267Z" fill="#00B69B" fill-opacity="1.000000" fill-rule="evenodd"/>
	<path id="Point" d="M137 263C137 260.79 135.21 259 133 259C130.78 259 129 260.79 129 263C129 265.2 130.78 267 133 267C135.21 267 137 265.2 137 263Z" stroke="#FFFFFF" stroke-opacity="1.000000" stroke-width="1.400000"/>
	<path id="Point" d="M177 233C179.21 233 181 231.2 181 229C181 226.79 179.21 225 177 225C174.78 225 173 226.79 173 229C173 231.2 174.78 233 177 233Z" fill="#00B69B" fill-opacity="1.000000" fill-rule="evenodd"/>
	<path id="Point" d="M181 229C181 226.79 179.21 225 177 225C174.78 225 173 226.79 173 229C173 231.2 174.78 233 177 233C179.21 233 181 231.2 181 229Z" stroke="#FFFFFF" stroke-opacity="1.000000" stroke-width="1.400000"/>
	<path id="Point" d="M218 272C220.21 272 222 270.2 222 268C222 265.79 220.21 264 218 264C215.78 264 214 265.79 214 268C214 270.2 215.78 272 218 272Z" fill="#00B69B" fill-opacity="1.000000" fill-rule="evenodd"/>
	<path id="Point" d="M222 268C222 265.79 220.21 264 218 264C215.78 264 214 265.79 214 268C214 270.2 215.78 272 218 272C220.21 272 222 270.2 222 268Z" stroke="#FFFFFF" stroke-opacity="1.000000" stroke-width="1.400000"/>
	<path id="Point" d="M281 308C283.21 308 285 306.2 285 304C285 301.79 283.21 300 281 300C278.78 300 277 301.79 277 304C277 306.2 278.78 308 281 308Z" fill="#00B69B" fill-opacity="1.000000" fill-rule="evenodd"/>
	<path id="Point" d="M285 304C285 301.79 283.21 300 281 300C278.78 300 277 301.79 277 304C277 306.2 278.78 308 281 308C283.21 308 285 306.2 285 304Z" stroke="#FFFFFF" stroke-opacity="1.000000" stroke-width="1.400000"/>
	<path id="Point" d="M341 258C343.21 258 345 256.2 345 254C345 251.79 343.21 250 341 250C338.78 250 337 251.79 337 254C337 256.2 338.78 258 341 258Z" fill="#00B69B" fill-opacity="1.000000" fill-rule="evenodd"/>
	<path id="Point" d="M345 254C345 251.79 343.21 250 341 250C338.78 250 337 251.79 337 254C337 256.2 338.78 258 341 258C343.21 258 345 256.2 345 254Z" stroke="#FFFFFF" stroke-opacity="1.000000" stroke-width="1.400000"/>
	<path id="Point" d="M318 287C320.21 287 322 285.2 322 283C322 280.79 320.21 279 318 279C315.78 279 314 280.79 314 283C314 285.2 315.78 287 318 287Z" fill="#00B69B" fill-opacity="1.000000" fill-rule="evenodd"/>
	<path id="Point" d="M322 283C322 280.79 320.21 279 318 279C315.78 279 314 280.79 314 283C314 285.2 315.78 287 318 287C320.21 287 322 285.2 322 283Z" stroke="#FFFFFF" stroke-opacity="1.000000" stroke-width="1.400000"/>
	<path id="Point" d="M378 183C380.21 183 382 181.2 382 179C382 176.79 380.21 175 378 175C375.78 175 374 176.79 374 179C374 181.2 375.78 183 378 183Z" fill="#00B69B" fill-opacity="1.000000" fill-rule="evenodd"/>
	<path id="Point" d="M382 179C382 176.79 380.21 175 378 175C375.78 175 374 176.79 374 179C374 181.2 375.78 183 378 183C380.21 183 382 181.2 382 179Z" stroke="#FFFFFF" stroke-opacity="1.000000" stroke-width="1.400000"/>
	<path id="Point" d="M385 148C387.21 148 389 146.2 389 144C389 141.79 387.21 140 385 140C382.78 140 381 141.79 381 144C381 146.2 382.78 148 385 148Z" fill="#00B69B" fill-opacity="1.000000" fill-rule="evenodd"/>
	<path id="Point" d="M389 144C389 141.79 387.21 140 385 140C382.78 140 381 141.79 381 144C381 146.2 382.78 148 385 148C387.21 148 389 146.2 389 144Z" stroke="#FFFFFF" stroke-opacity="1.000000" stroke-width="1.400000"/>
	<path id="Point" d="M364 219C366.21 219 368 217.2 368 215C368 212.79 366.21 211 364 211C361.78 211 360 212.79 360 215C360 217.2 361.78 219 364 219Z" fill="#00B69B" fill-opacity="1.000000" fill-rule="evenodd"/>
	<path id="Point" d="M368 215C368 212.79 366.21 211 364 211C361.78 211 360 212.79 360 215C360 217.2 361.78 219 364 219C366.21 219 368 217.2 368 215Z" stroke="#FFFFFF" stroke-opacity="1.000000" stroke-width="1.400000"/>
	<path id="Shape" d="M95 303C95 303 107.8 270.04 114.04 256.93C120.64 243.05 127.12 231.69 133.46 222.85C139.98 213.76 146.37 207.34 152.63 203.57C157.75 200.48 170.61 200.03 172 200.36C179.23 202.1 185.39 206.33 191.24 211.75C197.76 217.81 203.89 225.35 210.7 232.6C216.39 238.66 222.56 244.52 229.82 249.13C235.45 252.71 241.75 255.53 249 257.11C253.15 258.02 266.37 258.39 268.33 258.13C274.79 257.29 281.22 255.09 287.51 251.84C294.24 248.36 300.82 243.68 307.12 238.16C313.9 232.21 320.36 225.28 326.34 217.81C333.57 208.78 340.1 198.97 345.65 189.16C357.52 168.17 364.89 147.2 365 134" stroke="#4880FF" stroke-opacity="1.000000" stroke-width="4.000000" stroke-linecap="round"/>
	<path id="Point" d="M93.5 309C95.43 309 97 307.65 97 306C97 304.34 95.43 303 93.5 303C91.56 303 90 304.34 90 306C90 307.65 91.56 309 93.5 309Z" fill="#00B69B" fill-opacity="1.000000" fill-rule="evenodd"/>
	<path id="Point" d="M97 306C97 304.34 95.43 303 93.5 303C91.56 303 90 304.34 90 306C90 307.65 91.56 309 93.5 309C95.43 309 97 307.65 97 306Z" stroke="#4880FF" stroke-opacity="1.000000" stroke-width="1.400000"/>
	<path id="Point" d="M112.5 263C114.43 263 116 261.65 116 260C116 258.34 114.43 257 112.5 257C110.56 257 109 258.34 109 260C109 261.65 110.56 263 112.5 263Z" fill="#00B69B" fill-opacity="1.000000" fill-rule="evenodd"/>
	<path id="Point" d="M116 260C116 258.34 114.43 257 112.5 257C110.56 257 109 258.34 109 260C109 261.65 110.56 263 112.5 263C114.43 263 116 261.65 116 260Z" stroke="#4880FF" stroke-opacity="1.000000" stroke-width="1.400000"/>
	<path id="Point" d="M130.5 230C132.43 230 134 228.65 134 227C134 225.34 132.43 224 130.5 224C128.56 224 127 225.34 127 227C127 228.65 128.56 230 130.5 230Z" fill="#00B69B" fill-opacity="1.000000" fill-rule="evenodd"/>
	<path id="Point" d="M134 227C134 225.34 132.43 224 130.5 224C128.56 224 127 225.34 127 227C127 228.65 128.56 230 130.5 230C132.43 230 134 228.65 134 227Z" stroke="#4880FF" stroke-opacity="1.000000" stroke-width="1.400000"/>
	<path id="Point" d="M171.5 203C173.43 203 175 201.65 175 200C175 198.34 173.43 197 171.5 197C169.56 197 168 198.34 168 200C168 201.65 169.56 203 171.5 203Z" fill="#00B69B" fill-opacity="1.000000" fill-rule="evenodd"/>
	<path id="Point" d="M175 200C175 198.34 173.43 197 171.5 197C169.56 197 168 198.34 168 200C168 201.65 169.56 203 171.5 203C173.43 203 175 201.65 175 200Z" stroke="#4880FF" stroke-opacity="1.000000" stroke-width="1.400000"/>
	<path id="Point" d="M209.5 234C211.43 234 213 232.65 213 231C213 229.34 211.43 228 209.5 228C207.56 228 206 229.34 206 231C206 232.65 207.56 234 209.5 234Z" fill="#00B69B" fill-opacity="1.000000" fill-rule="evenodd"/>
	<path id="Point" d="M213 231C213 229.34 211.43 228 209.5 228C207.56 228 206 229.34 206 231C206 232.65 207.56 234 209.5 234C211.43 234 213 232.65 213 231Z" stroke="#4880FF" stroke-opacity="1.000000" stroke-width="1.400000"/>
	<path id="Point" d="M268.5 262C270.43 262 272 260.65 272 259C272 257.34 270.43 256 268.5 256C266.56 256 265 257.34 265 259C265 260.65 266.56 262 268.5 262Z" fill="#00B69B" fill-opacity="1.000000" fill-rule="evenodd"/>
	<path id="Point" d="M272 259C272 257.34 270.43 256 268.5 256C266.56 256 265 257.34 265 259C265 260.65 266.56 262 268.5 262C270.43 262 272 260.65 272 259Z" stroke="#4880FF" stroke-opacity="1.000000" stroke-width="1.400000"/>
	<path id="Point" d="M324.5 223C326.43 223 328 221.65 328 220C328 218.34 326.43 217 324.5 217C322.56 217 321 218.34 321 220C321 221.65 322.56 223 324.5 223Z" fill="#00B69B" fill-opacity="1.000000" fill-rule="evenodd"/>
	<path id="Point" d="M328 220C328 218.34 326.43 217 324.5 217C322.56 217 321 218.34 321 220C321 221.65 322.56 223 324.5 223C326.43 223 328 221.65 328 220Z" stroke="#4880FF" stroke-opacity="1.000000" stroke-width="1.400000"/>
	<path id="Point" d="M302.5 246C304.43 246 306 244.65 306 243C306 241.34 304.43 240 302.5 240C300.56 240 299 241.34 299 243C299 244.65 300.56 246 302.5 246Z" fill="#00B69B" fill-opacity="1.000000" fill-rule="evenodd"/>
	<path id="Point" d="M306 243C306 241.34 304.43 240 302.5 240C300.56 240 299 241.34 299 243C299 244.65 300.56 246 302.5 246C304.43 246 306 244.65 306 243Z" stroke="#4880FF" stroke-opacity="1.000000" stroke-width="1.400000"/>
	<path id="Point" d="M358.5 164C360.43 164 362 162.65 362 161C362 159.34 360.43 158 358.5 158C356.56 158 355 159.34 355 161C355 162.65 356.56 164 358.5 164Z" fill="#00B69B" fill-opacity="1.000000" fill-rule="evenodd"/>
	<path id="Point" d="M362 161C362 159.34 360.43 158 358.5 158C356.56 158 355 159.34 355 161C355 162.65 356.56 164 358.5 164C360.43 164 362 162.65 362 161Z" stroke="#4880FF" stroke-opacity="1.000000" stroke-width="1.400000"/>
	<path id="Point" d="M365.5 137C367.43 137 369 135.65 369 134C369 132.34 367.43 131 365.5 131C363.56 131 362 132.34 362 134C362 135.65 363.56 137 365.5 137Z" fill="#00B69B" fill-opacity="1.000000" fill-rule="evenodd"/>
	<path id="Point" d="M369 134C369 132.34 367.43 131 365.5 131C363.56 131 362 132.34 362 134C362 135.65 363.56 137 365.5 137C367.43 137 369 135.65 369 134Z" stroke="#4880FF" stroke-opacity="1.000000" stroke-width="1.400000"/>
	<path id="Point" d="M345.5 193C347.43 193 349 191.65 349 190C349 188.34 347.43 187 345.5 187C343.56 187 342 188.34 342 190C342 191.65 343.56 193 345.5 193Z" fill="#00B69B" fill-opacity="1.000000" fill-rule="evenodd"/>
	<path id="Point" d="M349 190C349 188.34 347.43 187 345.5 187C343.56 187 342 188.34 342 190C342 191.65 343.56 193 345.5 193C347.43 193 349 191.65 349 190Z" stroke="#4880FF" stroke-opacity="1.000000" stroke-width="1.400000"/>
	<g opacity="0.200000">
		<path id="Line 2" d="M94.01 363.65L93.85 363.65L93.85 363.35L94.01 363.35L94.01 363.65ZM391.98 363.35L392.14 363.35L392.14 363.65L391.98 363.65L391.98 363.35Z" fill="#D8D8D8" fill-opacity="0" fill-rule="nonzero"/>
		<path id="Line 2" d="M94 363.5L392 363.5" stroke="#979797" stroke-opacity="1.000000" stroke-width="0.300000" stroke-linecap="square"/>
	</g>
	<g opacity="0.200000">
		<path id="Line 2" d="M94.01 304.65L93.85 304.65L93.85 304.35L94.01 304.35L94.01 304.65ZM391.98 304.35L392.14 304.35L392.14 304.65L391.98 304.65L391.98 304.35Z" fill="#D8D8D8" fill-opacity="0" fill-rule="nonzero"/>
		<path id="Line 2" d="M94 304.5L392 304.5" stroke="#979797" stroke-opacity="1.000000" stroke-width="0.300000" stroke-linecap="square"/>
	</g>
	<g opacity="0.200000">
		<path id="Line 2" d="M94.01 245.65L93.85 245.65L93.85 245.35L94.01 245.35L94.01 245.65ZM391.98 245.35L392.14 245.35L392.14 245.65L391.98 245.65L391.98 245.35Z" fill="#D8D8D8" fill-opacity="0" fill-rule="nonzero"/>
		<path id="Line 2" d="M94 245.5L392 245.5" stroke="#979797" stroke-opacity="1.000000" stroke-width="0.300000" stroke-linecap="square"/>
	</g>
	<g opacity="0.200000">
		<path id="Line 2" d="M94.01 186.65L93.85 186.65L93.85 186.35L94.01 186.35L94.01 186.65ZM391.98 186.35L392.14 186.35L392.14 186.65L391.98 186.65L391.98 186.35Z" fill="#D8D8D8" fill-opacity="0" fill-rule="nonzero"/>
		<path id="Line 2" d="M94 186.5L392 186.5" stroke="#979797" stroke-opacity="1.000000" stroke-width="0.300000" stroke-linecap="square"/>
	</g>
	<g opacity="0.200000">
		<path id="Line 2" d="M94.01 127.65L93.85 127.65L93.85 127.35L94.01 127.35L94.01 127.65ZM391.98 127.35L392.14 127.35L392.14 127.65L391.98 127.65L391.98 127.35Z" fill="#D8D8D8" fill-opacity="0" fill-rule="nonzero"/>
		<path id="Line 2" d="M94 127.5L392 127.5" stroke="#979797" stroke-opacity="1.000000" stroke-width="0.300000" stroke-linecap="square"/>
	</g>
	<path id="2019" d="M364.02 391.07L364.02 392L369.51 392L369.51 390.95L365.58 390.95L367.66 388.76Q368.44 387.94 368.81 387.22Q369.1 386.64 369.16 386.04Q369.17 385.89 369.17 385.74Q369.17 384.9 368.77 384.35Q368.64 384.17 368.47 384.03Q367.77 383.43 366.46 383.43Q365.99 383.43 365.54 383.52Q365.22 383.59 364.91 383.71Q364.17 383.99 363.69 384.46L364.14 385.41Q364.78 384.79 365.54 384.59Q365.92 384.48 366.33 384.48Q367.27 384.48 367.66 384.94Q367.94 385.28 367.94 385.85Q367.94 385.9 367.94 385.95Q367.92 386.43 367.68 386.89Q367.42 387.41 366.84 388.05L364.02 391.07ZM372.29 391.71Q372.92 392.1 373.8 392.1Q374.67 392.1 375.3 391.71Q375.73 391.44 376.05 390.98Q376.82 389.86 376.82 387.75Q376.82 385.62 376.05 384.52Q375.76 384.11 375.37 383.85Q374.72 383.43 373.8 383.43Q372.9 383.43 372.26 383.84Q371.85 384.1 371.55 384.52Q370.77 385.62 370.77 387.76Q370.77 389.86 371.55 390.98Q371.86 391.44 372.29 391.71ZM387.55 392.1Q387.57 392.1 387.58 392.1Q388.63 392.1 389.38 391.64Q389.82 391.36 390.17 390.93Q391.1 389.75 391.1 387.58Q391.1 385.61 390.26 384.52Q389.97 384.13 389.58 383.88Q388.88 383.43 387.89 383.43Q387.15 383.43 386.56 383.73Q386.52 383.75 386.47 383.78Q386.19 383.95 385.96 384.17Q385.69 384.43 385.51 384.77Q385.5 384.77 385.5 384.78Q385.16 385.4 385.16 386.21Q385.16 386.99 385.48 387.6Q385.67 387.95 385.95 388.22Q386.15 388.41 386.38 388.55Q386.5 388.63 386.63 388.68Q387.11 388.9 387.69 388.9Q388.27 388.9 388.74 388.68Q388.91 388.59 389.08 388.48Q389.29 388.33 389.46 388.14Q389.76 387.8 389.91 387.33L389.91 387.82Q389.91 389.43 389.32 390.24Q389.1 390.53 388.82 390.71Q388.32 391.05 387.6 391.05Q387.53 391.05 387.46 391.04Q387 391.02 386.55 390.83Q386.04 390.6 385.59 390.17L385.16 391.12Q385.62 391.58 386.27 391.84Q386.91 392.1 387.55 392.1ZM378.8 390.95L378.8 392L383.76 392L383.76 390.95L381.95 390.95L381.95 383.53L381.08 383.53L378.72 384.99L379.22 385.91L380.72 384.98L380.72 390.95L378.8 390.95ZM388.84 387.66Q388.47 387.88 387.98 387.88Q387.49 387.88 387.12 387.67Q386.94 387.56 386.79 387.4Q386.69 387.3 386.6 387.17Q386.34 386.75 386.34 386.16Q386.34 385.58 386.6 385.16Q386.68 385.03 386.79 384.91Q386.95 384.74 387.15 384.63Q387.51 384.42 387.98 384.42Q388.45 384.42 388.81 384.63Q389.01 384.74 389.17 384.91Q389.28 385.03 389.37 385.17Q389.62 385.59 389.62 386.16Q389.62 386.75 389.36 387.16Q389.27 387.29 389.17 387.4Q389.02 387.56 388.84 387.66ZM374.58 390.88Q374.25 391.07 373.8 391.07Q373.35 391.07 373.01 390.88Q372.67 390.68 372.44 390.27Q371.99 389.46 371.99 387.75Q371.99 386.04 372.44 385.25Q372.66 384.86 373 384.66Q373.34 384.46 373.8 384.46Q374.28 384.46 374.63 384.68Q374.95 384.87 375.16 385.25Q375.59 386.03 375.59 387.75Q375.59 389.46 375.15 390.27Q374.93 390.68 374.58 390.88Z" fill="#292C2F" fill-opacity="0.400000" fill-rule="evenodd"/>
	<path id="2018" d="M295.01 391.07L295.01 392L300.51 392L300.51 390.95L296.58 390.95L298.66 388.76Q299.44 387.94 299.81 387.22Q300.1 386.64 300.16 386.04Q300.17 385.89 300.17 385.74Q300.17 384.9 299.77 384.35Q299.64 384.17 299.47 384.03Q298.77 383.43 297.46 383.43Q296.99 383.43 296.54 383.52Q296.22 383.59 295.91 383.71Q295.17 383.99 294.69 384.46L295.14 385.41Q295.78 384.79 296.54 384.59Q296.92 384.48 297.33 384.48Q298.26 384.48 298.66 384.94Q298.94 385.28 298.94 385.85Q298.94 385.9 298.94 385.95Q298.92 386.43 298.68 386.89Q298.42 387.41 297.84 388.05L295.01 391.07ZM303.29 391.71Q303.92 392.1 304.8 392.1Q305.67 392.1 306.3 391.71Q306.73 391.44 307.05 390.98Q307.82 389.86 307.82 387.75Q307.82 385.62 307.05 384.52Q306.76 384.11 306.37 383.85Q305.72 383.43 304.8 383.43Q303.9 383.43 303.26 383.84Q302.85 384.1 302.55 384.52Q301.77 385.62 301.77 387.76Q301.77 389.86 302.55 390.98Q302.86 391.44 303.29 391.71ZM316.93 391.48Q317.74 392.1 319.2 392.1Q320.65 392.1 321.45 391.48Q321.77 391.24 321.96 390.92Q322.27 390.42 322.27 389.74Q322.27 389.09 321.99 388.61Q321.93 388.51 321.86 388.42Q321.7 388.21 321.51 388.05Q321.19 387.79 320.77 387.66Q321.1 387.53 321.35 387.31Q321.56 387.13 321.72 386.89Q321.82 386.74 321.9 386.57Q322.07 386.17 322.07 385.68Q322.07 385.06 321.8 384.6Q321.62 384.27 321.29 384.03Q320.51 383.43 319.2 383.43Q317.89 383.43 317.11 384.03Q316.79 384.27 316.6 384.59Q316.33 385.06 316.33 385.68Q316.33 386.2 316.53 386.63Q316.59 386.76 316.67 386.89Q316.81 387.09 316.98 387.25Q317.25 387.51 317.62 387.66Q317.25 387.78 316.96 387.99Q316.72 388.17 316.54 388.42Q316.46 388.52 316.39 388.63Q316.12 389.11 316.12 389.74Q316.12 390.42 316.43 390.92Q316.62 391.24 316.93 391.48ZM309.8 390.95L309.8 392L314.76 392L314.76 390.95L312.95 390.95L312.95 383.53L312.08 383.53L309.72 384.99L310.22 385.91L311.72 384.98L311.72 390.95L309.8 390.95ZM320.45 386.84Q320 387.22 319.2 387.22Q318.39 387.22 317.95 386.84Q317.8 386.72 317.71 386.57Q317.5 386.25 317.5 385.8Q317.5 385.38 317.69 385.07Q317.79 384.91 317.95 384.78Q318.39 384.41 319.2 384.41Q320 384.41 320.45 384.78Q320.61 384.92 320.71 385.09Q320.9 385.39 320.9 385.8Q320.9 386.24 320.7 386.55Q320.6 386.71 320.45 386.84ZM305.58 390.88Q305.25 391.07 304.8 391.07Q304.35 391.07 304.01 390.88Q303.67 390.68 303.44 390.27Q302.99 389.46 302.99 387.75Q302.99 386.04 303.44 385.25Q303.66 384.86 304 384.66Q304.34 384.46 304.8 384.46Q305.28 384.46 305.63 384.68Q305.95 384.87 306.16 385.25Q306.59 386.03 306.59 387.75Q306.59 389.46 306.15 390.27Q305.93 390.68 305.58 390.88ZM320.84 390.54Q320.4 391.12 319.2 391.12Q318 391.12 317.55 390.54Q317.29 390.2 317.29 389.65Q317.29 389.12 317.55 388.78Q317.64 388.66 317.77 388.56Q318.26 388.2 319.2 388.2Q320.4 388.2 320.85 388.79Q321.1 389.12 321.1 389.65Q321.1 390.2 320.84 390.54Z" fill="#292C2F" fill-opacity="0.400000" fill-rule="evenodd"/>
	<path id="2017" d="M226.02 391.07L226.02 392L231.51 392L231.51 390.95L227.58 390.95L229.66 388.76Q230.44 387.94 230.81 387.22Q231.1 386.64 231.16 386.04Q231.17 385.89 231.17 385.74Q231.17 384.9 230.77 384.35Q230.64 384.17 230.47 384.03Q229.77 383.43 228.46 383.43Q227.99 383.43 227.54 383.52Q227.22 383.59 226.91 383.71Q226.17 383.99 225.69 384.46L226.14 385.41Q226.78 384.79 227.54 384.59Q227.92 384.48 228.33 384.48Q229.27 384.48 229.66 384.94Q229.94 385.28 229.94 385.85Q229.94 385.9 229.94 385.95Q229.92 386.43 229.68 386.89Q229.42 387.41 228.84 388.05L226.02 391.07ZM234.29 391.71Q234.92 392.1 235.8 392.1Q236.67 392.1 237.3 391.71Q237.73 391.44 238.05 390.98Q238.82 389.86 238.82 387.75Q238.82 385.62 238.05 384.52Q237.76 384.11 237.37 383.85Q236.72 383.43 235.8 383.43Q234.9 383.43 234.26 383.84Q233.85 384.1 233.55 384.52Q232.77 385.62 232.77 387.76Q232.77 389.86 233.55 390.98Q233.86 391.44 234.29 391.71ZM240.8 390.95L240.8 392L245.76 392L245.76 390.95L243.95 390.95L243.95 383.53L243.08 383.53L240.72 384.99L241.22 385.91L242.72 384.98L242.72 390.95L240.8 390.95ZM251.67 384.58L247.8 392L249.16 392L253.06 384.46L253.06 383.53L247.34 383.53L247.34 384.58L251.67 384.58ZM236.58 390.88Q236.25 391.07 235.8 391.07Q235.35 391.07 235.01 390.88Q234.67 390.68 234.44 390.27Q233.99 389.46 233.99 387.75Q233.99 386.04 234.44 385.25Q234.66 384.86 235 384.66Q235.34 384.46 235.8 384.46Q236.28 384.46 236.63 384.68Q236.95 384.87 237.16 385.25Q237.59 386.03 237.59 387.75Q237.59 389.46 237.15 390.27Q236.93 390.68 236.58 390.88Z" fill="#292C2F" fill-opacity="0.400000" fill-rule="evenodd"/>
	<path id="2016" d="M157.02 391.07L157.02 392L162.51 392L162.51 390.95L158.58 390.95L160.66 388.76Q161.44 387.94 161.81 387.22Q162.1 386.64 162.16 386.04Q162.17 385.89 162.17 385.74Q162.17 384.9 161.77 384.35Q161.64 384.17 161.47 384.03Q160.77 383.43 159.46 383.43Q158.99 383.43 158.54 383.52Q158.22 383.59 157.91 383.71Q157.17 383.99 156.69 384.46L157.14 385.41Q157.78 384.79 158.53 384.59Q158.92 384.48 159.33 384.48Q160.27 384.48 160.66 384.94Q160.94 385.28 160.94 385.85Q160.94 385.9 160.94 385.95Q160.92 386.43 160.68 386.89Q160.42 387.41 159.84 388.05L157.02 391.07ZM165.29 391.71Q165.92 392.1 166.8 392.1Q167.67 392.1 168.3 391.71Q168.73 391.44 169.05 390.98Q169.82 389.86 169.82 387.75Q169.82 385.62 169.05 384.52Q168.76 384.11 168.37 383.85Q167.72 383.43 166.8 383.43Q165.9 383.43 165.26 383.84Q164.85 384.1 164.55 384.52Q163.77 385.62 163.77 387.76Q163.77 389.86 164.55 390.98Q164.86 391.44 165.29 391.71ZM179.82 391.66Q180.52 392.1 181.49 392.1Q182.25 392.1 182.84 391.79Q182.88 391.77 182.92 391.75Q183.21 391.58 183.44 391.35Q183.7 391.1 183.88 390.77Q183.89 390.74 183.91 390.72Q184.23 390.11 184.23 389.32Q184.23 388.54 183.91 387.93Q183.72 387.58 183.44 387.31Q183.25 387.12 183.01 386.98Q182.93 386.93 182.85 386.89Q182.34 386.63 181.7 386.63Q181.16 386.63 180.71 386.83Q180.51 386.92 180.33 387.05Q180.12 387.19 179.96 387.37Q179.65 387.71 179.49 388.19L179.49 387.71Q179.49 386.1 180.09 385.3Q180.31 384.99 180.6 384.8Q181.1 384.48 181.8 384.48Q181.83 384.48 181.87 384.48Q182.36 384.5 182.85 384.7Q183.37 384.91 183.8 385.35L184.23 384.41Q183.79 383.94 183.13 383.69Q182.47 383.43 181.82 383.43Q180.79 383.43 180.03 383.89Q179.58 384.16 179.23 384.6Q178.29 385.78 178.29 387.95Q178.29 389.92 179.12 391.01Q179.43 391.41 179.82 391.66ZM171.8 390.95L171.8 392L176.76 392L176.76 390.95L174.95 390.95L174.95 383.53L174.08 383.53L171.72 384.99L172.22 385.91L173.72 384.98L173.72 390.95L171.8 390.95ZM167.58 390.88Q167.25 391.07 166.8 391.07Q166.35 391.07 166.01 390.88Q165.67 390.68 165.44 390.27Q164.99 389.46 164.99 387.75Q164.99 386.04 165.44 385.25Q165.66 384.86 166 384.66Q166.34 384.46 166.8 384.46Q167.28 384.46 167.63 384.68Q167.95 384.87 168.16 385.25Q168.59 386.03 168.59 387.75Q168.59 389.46 168.15 390.27Q167.93 390.68 167.58 390.88ZM182.26 390.89Q181.9 391.1 181.42 391.1Q180.94 391.1 180.58 390.89Q180.39 390.78 180.24 390.62Q180.12 390.5 180.04 390.36Q179.78 389.95 179.78 389.37Q179.78 388.79 180.04 388.37Q180.12 388.24 180.24 388.12Q180.39 387.96 180.58 387.85Q180.94 387.64 181.42 387.64Q181.9 387.64 182.26 387.84Q182.45 387.95 182.61 388.12Q182.72 388.24 182.81 388.37Q183.07 388.79 183.07 389.37Q183.07 389.95 182.81 390.36Q182.72 390.5 182.61 390.62Q182.45 390.78 182.26 390.89Z" fill="#292C2F" fill-opacity="0.400000" fill-rule="evenodd"/>
	<path id="2015" d="M88.01 391.07L88.01 392L93.51 392L93.51 390.95L89.58 390.95L91.66 388.76Q92.44 387.94 92.81 387.22Q93.1 386.64 93.16 386.04Q93.17 385.89 93.17 385.74Q93.17 384.9 92.77 384.35Q92.64 384.17 92.47 384.03Q91.77 383.43 90.46 383.43Q89.99 383.43 89.54 383.52Q89.22 383.59 88.91 383.71Q88.17 383.99 87.69 384.46L88.13 385.41Q88.78 384.79 89.53 384.59Q89.92 384.48 90.33 384.48Q91.27 384.48 91.66 384.94Q91.94 385.28 91.94 385.85Q91.94 385.9 91.94 385.95Q91.92 386.43 91.68 386.89Q91.42 387.41 90.84 388.05L88.01 391.07ZM96.29 391.71Q96.92 392.1 97.8 392.1Q98.67 392.1 99.3 391.71Q99.73 391.44 100.05 390.98Q100.82 389.86 100.82 387.75Q100.82 385.62 100.05 384.52Q99.76 384.11 99.37 383.85Q98.72 383.43 97.8 383.43Q96.89 383.43 96.26 383.84Q95.85 384.1 95.55 384.52Q94.77 385.62 94.77 387.76Q94.77 389.86 95.55 390.98Q95.86 391.44 96.29 391.71ZM102.8 390.95L102.8 392L107.76 392L107.76 390.95L105.95 390.95L105.95 383.53L105.08 383.53L102.72 384.99L103.22 385.91L104.72 384.98L104.72 390.95L102.8 390.95ZM111.28 391.99Q111.79 392.1 112.33 392.1Q113.24 392.1 113.9 391.76Q114.33 391.53 114.63 391.19Q114.79 391 114.92 390.79Q114.94 390.76 114.95 390.73Q115.28 390.13 115.28 389.36Q115.28 388.55 114.95 387.95Q114.78 387.62 114.53 387.37Q114.31 387.16 114.04 387Q113.46 386.67 112.65 386.67Q111.85 386.67 111.26 387.02Q111.1 387.13 110.95 387.26L110.95 384.58L114.77 384.58L114.77 383.53L109.74 383.53L109.74 388.62L110.6 388.62Q110.95 388.14 111.43 387.91Q111.86 387.7 112.39 387.7Q113.01 387.7 113.42 388Q113.53 388.08 113.62 388.18Q113.73 388.29 113.81 388.42Q114.07 388.84 114.07 389.41Q114.07 389.92 113.85 390.29Q113.75 390.46 113.6 390.6Q113.55 390.64 113.5 390.68Q113.05 391.05 112.3 391.05Q111.91 391.05 111.53 390.96Q110.67 390.78 109.9 390.16L109.48 391.12Q109.99 391.59 110.75 391.85Q111.01 391.94 111.28 391.99ZM98.58 390.88Q98.25 391.07 97.8 391.07Q97.35 391.07 97.01 390.88Q96.67 390.68 96.44 390.27Q95.99 389.46 95.99 387.75Q95.99 386.04 96.44 385.25Q96.66 384.86 97 384.66Q97.34 384.46 97.8 384.46Q98.28 384.46 98.63 384.68Q98.95 384.87 99.16 385.25Q99.59 386.03 99.59 387.75Q99.59 389.46 99.15 390.27Q98.93 390.68 98.58 390.88Z" fill="#292C2F" fill-opacity="0.400000" fill-rule="evenodd"/>
	<path id="0" d="M80.89 366.71Q81.52 367.1 82.4 367.1Q83.27 367.1 83.9 366.71Q84.33 366.44 84.65 365.98Q85.42 364.86 85.42 362.75Q85.42 360.62 84.65 359.52Q84.36 359.11 83.97 358.85Q83.32 358.43 82.4 358.43Q81.49 358.43 80.86 358.84Q80.45 359.1 80.15 359.52Q79.37 360.62 79.37 362.76Q79.37 364.86 80.15 365.98Q80.46 366.44 80.89 366.71ZM83.18 365.88Q82.85 366.07 82.4 366.07Q81.95 366.07 81.61 365.88Q81.26 365.68 81.04 365.27Q80.59 364.46 80.59 362.75Q80.59 361.04 81.04 360.25Q81.26 359.86 81.6 359.66Q81.94 359.46 82.4 359.46Q82.88 359.46 83.23 359.68Q83.55 359.87 83.76 360.25Q84.19 361.03 84.19 362.75Q84.19 364.46 83.75 365.27Q83.53 365.68 83.18 365.88Z" fill="#292C2F" fill-opacity="0.400000" fill-rule="evenodd"/>
	<path id="25" d="M72.61 307.07L72.61 308L78.11 308L78.11 306.95L74.18 306.95L76.26 304.76Q77.04 303.94 77.41 303.22Q77.7 302.64 77.76 302.04Q77.77 301.89 77.77 301.74Q77.77 300.9 77.37 300.35Q77.24 300.17 77.07 300.03Q76.37 299.43 75.06 299.43Q74.59 299.43 74.14 299.52Q73.82 299.59 73.51 299.71Q72.77 299.99 72.29 300.46L72.73 301.41Q73.38 300.79 74.13 300.59Q74.52 300.48 74.93 300.48Q75.87 300.48 76.26 300.94Q76.54 301.28 76.54 301.85Q76.54 301.9 76.54 301.95Q76.52 302.43 76.28 302.89Q76.02 303.41 75.44 304.05L72.61 307.07ZM81.48 307.99Q81.99 308.1 82.53 308.1Q83.44 308.1 84.1 307.76Q84.53 307.53 84.83 307.19Q84.99 307 85.12 306.79Q85.14 306.76 85.15 306.73Q85.48 306.13 85.48 305.35Q85.48 304.55 85.15 303.95Q84.98 303.62 84.73 303.37Q84.51 303.16 84.24 303Q83.66 302.67 82.85 302.67Q82.05 302.67 81.46 303.02Q81.3 303.13 81.15 303.26L81.15 300.58L84.97 300.58L84.97 299.53L79.93 299.53L79.93 304.62L80.8 304.62Q81.15 304.14 81.63 303.91Q82.06 303.7 82.59 303.7Q83.21 303.7 83.62 304Q83.73 304.08 83.82 304.18Q83.93 304.29 84.01 304.42Q84.27 304.84 84.27 305.41Q84.27 305.92 84.04 306.29Q83.94 306.46 83.8 306.6Q83.75 306.64 83.7 306.68Q83.25 307.05 82.5 307.05Q82.11 307.05 81.73 306.96Q80.87 306.78 80.1 306.16L79.68 307.12Q80.19 307.59 80.95 307.85Q81.21 307.94 81.48 307.99Z" fill="#292C2F" fill-opacity="0.400000" fill-rule="evenodd"/>
	<path id="50" d="M80.89 248.71Q81.52 249.1 82.4 249.1Q83.27 249.1 83.9 248.71Q84.33 248.44 84.65 247.98Q85.42 246.86 85.42 244.75Q85.42 242.62 84.65 241.52Q84.36 241.11 83.97 240.85Q83.32 240.43 82.4 240.43Q81.49 240.43 80.86 240.84Q80.45 241.1 80.15 241.52Q79.37 242.62 79.37 244.76Q79.37 246.86 80.15 247.98Q80.46 248.44 80.89 248.71ZM74.28 248.99Q74.79 249.1 75.33 249.1Q76.24 249.1 76.9 248.76Q77.33 248.53 77.63 248.19Q77.79 248 77.92 247.79Q77.94 247.76 77.95 247.73Q78.28 247.13 78.28 246.36Q78.28 245.55 77.95 244.95Q77.78 244.62 77.53 244.37Q77.31 244.16 77.04 244Q76.46 243.67 75.65 243.67Q74.85 243.67 74.26 244.02Q74.1 244.13 73.95 244.26L73.95 241.58L77.77 241.58L77.77 240.53L72.73 240.53L72.73 245.62L73.6 245.62Q73.95 245.14 74.43 244.91Q74.86 244.7 75.39 244.7Q76.01 244.7 76.42 245Q76.53 245.08 76.62 245.18Q76.73 245.29 76.81 245.42Q77.07 245.84 77.07 246.41Q77.07 246.92 76.84 247.29Q76.74 247.46 76.6 247.6Q76.55 247.64 76.5 247.68Q76.05 248.05 75.3 248.05Q74.91 248.05 74.53 247.96Q73.67 247.78 72.9 247.16L72.48 248.12Q72.99 248.59 73.75 248.85Q74.01 248.94 74.28 248.99ZM83.18 247.88Q82.85 248.07 82.4 248.07Q81.95 248.07 81.61 247.88Q81.26 247.68 81.04 247.27Q80.59 246.46 80.59 244.75Q80.59 243.04 81.04 242.25Q81.26 241.86 81.6 241.66Q81.94 241.46 82.4 241.46Q82.88 241.46 83.23 241.68Q83.55 241.87 83.76 242.25Q84.19 243.03 84.19 244.75Q84.19 246.46 83.75 247.27Q83.53 247.68 83.18 247.88Z" fill="#292C2F" fill-opacity="0.400000" fill-rule="evenodd"/>
	<path id="75" d="M76.67 182.58L72.8 190L74.16 190L78.06 182.46L78.06 181.53L72.34 181.53L72.34 182.58L76.67 182.58ZM81.48 189.99Q81.99 190.1 82.53 190.1Q83.44 190.1 84.1 189.76Q84.53 189.53 84.83 189.19Q84.99 189 85.12 188.79Q85.14 188.76 85.15 188.73Q85.48 188.13 85.48 187.36Q85.48 186.55 85.15 185.95Q84.98 185.62 84.73 185.37Q84.51 185.16 84.24 185Q83.66 184.67 82.85 184.67Q82.05 184.67 81.46 185.02Q81.3 185.13 81.15 185.26L81.15 182.58L84.97 182.58L84.97 181.53L79.93 181.53L79.93 186.62L80.8 186.62Q81.15 186.14 81.63 185.91Q82.06 185.7 82.59 185.7Q83.21 185.7 83.62 186Q83.73 186.08 83.82 186.18Q83.93 186.29 84.01 186.42Q84.27 186.84 84.27 187.41Q84.27 187.92 84.04 188.29Q83.94 188.46 83.8 188.6Q83.75 188.64 83.7 188.68Q83.25 189.05 82.5 189.05Q82.11 189.05 81.73 188.96Q80.87 188.78 80.1 188.16L79.68 189.12Q80.19 189.59 80.95 189.85Q81.21 189.94 81.48 189.99Z" fill="#292C2F" fill-opacity="0.400000" fill-rule="evenodd"/>
	<path id="100" d="M73.69 130.71Q74.32 131.1 75.2 131.1Q76.07 131.1 76.7 130.71Q77.13 130.44 77.45 129.98Q78.22 128.86 78.22 126.75Q78.22 124.62 77.45 123.52Q77.16 123.11 76.77 122.85Q76.12 122.43 75.2 122.43Q74.29 122.43 73.66 122.84Q73.25 123.1 72.95 123.52Q72.17 124.62 72.17 126.76Q72.17 128.86 72.95 129.98Q73.26 130.44 73.69 130.71ZM80.89 130.71Q81.52 131.1 82.4 131.1Q83.27 131.1 83.9 130.71Q84.33 130.44 84.65 129.98Q85.42 128.86 85.42 126.75Q85.42 124.62 84.65 123.52Q84.36 123.11 83.97 122.85Q83.32 122.43 82.4 122.43Q81.49 122.43 80.86 122.84Q80.45 123.1 80.15 123.52Q79.37 124.62 79.37 126.76Q79.37 128.86 80.15 129.98Q80.46 130.44 80.89 130.71ZM65.8 129.95L65.8 131L70.76 131L70.76 129.95L68.95 129.95L68.95 122.53L68.08 122.53L65.72 123.99L66.22 124.91L67.72 123.98L67.72 129.95L65.8 129.95ZM75.98 129.88Q75.65 130.07 75.2 130.07Q74.75 130.07 74.41 129.88Q74.07 129.68 73.84 129.27Q73.39 128.46 73.39 126.75Q73.39 125.04 73.84 124.25Q74.06 123.86 74.4 123.66Q74.74 123.46 75.2 123.46Q75.68 123.46 76.03 123.68Q76.35 123.87 76.56 124.25Q76.99 125.03 76.99 126.75Q76.99 128.46 76.55 129.27Q76.33 129.67 75.98 129.88ZM83.18 129.88Q82.85 130.07 82.4 130.07Q81.95 130.07 81.61 129.88Q81.26 129.68 81.04 129.27Q80.59 128.46 80.59 126.75Q80.59 125.04 81.04 124.25Q81.26 123.86 81.6 123.66Q81.94 123.46 82.4 123.46Q82.88 123.46 83.23 123.68Q83.55 123.87 83.76 124.25Q84.19 125.03 84.19 126.75Q84.19 128.46 83.75 129.27Q83.53 129.67 83.18 129.88Z" fill="#292C2F" fill-opacity="0.400000" fill-rule="evenodd"/>
	<path id="Title" d="M203.02 73.24L203.02 75.93L206.11 75.93L206.11 73.24L203.02 73.24ZM75.65 88.74Q77.21 89.22 79.04 89.22Q80.91 89.22 82.28 88.64Q83.6 88.07 84.35 87.07Q84.37 87.04 84.4 87Q84.64 86.66 84.8 86.29Q85.15 85.5 85.15 84.55Q85.15 83.4 84.63 82.58Q84.41 82.21 84.08 81.91Q83.02 80.92 80.84 80.46L78.44 79.96Q77.17 79.69 76.64 79.21Q76.46 79.05 76.34 78.86Q76.11 78.48 76.11 77.95Q76.11 77.47 76.3 77.07Q76.51 76.62 76.96 76.28Q77.82 75.64 79.34 75.64Q81.15 75.64 82.59 76.38Q83.22 76.71 83.78 77.18L84.64 75.07Q83.72 74.21 82.33 73.74Q80.95 73.26 79.36 73.26Q77.58 73.26 76.22 73.86Q75 74.39 74.26 75.31Q74.17 75.42 74.08 75.54Q73.89 75.81 73.74 76.11Q73.32 76.98 73.32 78.06Q73.32 79.27 73.85 80.16Q74.8 81.74 77.45 82.31L79.87 82.81Q81.23 83.1 81.79 83.54Q82.02 83.72 82.16 83.95Q82.36 84.29 82.36 84.75Q82.36 85.14 82.21 85.48Q82.02 85.93 81.56 86.26Q80.77 86.84 79.04 86.84Q77.52 86.84 76.23 86.42Q75.32 86.13 74.51 85.65Q74.18 85.46 73.86 85.24L73 87.45Q74.08 88.27 75.65 88.74ZM100.41 88.33Q101.32 89.22 103.08 89.22Q103.87 89.22 104.66 89.02L104.71 86.84Q104.49 86.91 104.25 86.93Q104.01 86.95 103.77 86.95Q103.07 86.95 102.66 86.6Q102.09 86.12 102.09 84.97L102.09 73.48L99.34 73.48L99.34 85.1Q99.34 87.13 100.25 88.17Q100.33 88.26 100.41 88.33ZM140.46 73.48L133.44 89L136.3 89L137.82 85.41L145.39 85.41L146.93 89L149.78 89L142.77 73.48L140.46 73.48ZM177.19 88.33Q178.1 89.22 179.86 89.22Q180.65 89.22 181.44 89.02L181.49 86.84Q181.27 86.91 181.03 86.93Q180.79 86.95 180.55 86.95Q179.85 86.95 179.44 86.6Q178.87 86.12 178.87 84.97L178.87 73.48L176.12 73.48L176.12 85.1Q176.12 87.13 177.03 88.17Q177.11 88.26 177.19 88.33ZM196.46 88.14Q197.53 89.22 199.68 89.22Q200.25 89.22 200.86 89.08Q201.47 88.95 201.86 88.73L201.44 86.71Q201.09 86.79 200.76 86.87Q200.43 86.95 200.13 86.95Q199.11 86.95 198.64 86.44Q198.64 86.43 198.63 86.42Q198.16 85.89 198.16 84.84L198.16 80.3L201.42 80.3L201.42 78.24L198.16 78.24L198.16 75.02L195.41 75.02L195.41 78.24L193.35 78.24L193.35 80.3L195.41 80.3L195.41 84.99Q195.41 87.08 196.46 88.14ZM138.78 83.17L141.58 76.54L141.63 76.54L144.42 83.17L138.78 83.17ZM88.77 88.76Q89.69 89.22 90.85 89.22Q91.93 89.22 92.72 88.74Q92.75 88.72 92.78 88.7Q93.19 88.44 93.48 88.09Q93.78 87.74 93.97 87.28L93.97 89L96.55 89L96.55 82.49Q96.55 80.2 95.41 79.11L95.41 79.11Q94.26 78.02 91.9 78.02Q91.14 78.02 90.27 78.18Q89.4 78.35 88.62 78.64Q87.84 78.94 87.26 79.34L88.06 81.21Q89.02 80.64 89.97 80.36Q90.92 80.08 91.82 80.08Q92.96 80.08 93.44 80.57Q93.93 81.05 93.93 82.15L93.93 82.61L93.16 82.61Q90.83 82.61 89.44 82.93Q88.06 83.23 87.44 83.92Q87.4 83.97 87.37 84.01Q86.82 84.69 86.82 85.8Q86.82 86.4 87.02 86.92Q87.14 87.25 87.34 87.54Q87.42 87.66 87.51 87.77Q88 88.38 88.77 88.76ZM108.4 88.53Q109.72 89.22 111.55 89.22Q112.72 89.22 113.88 88.84Q115.05 88.47 115.82 87.83L115.05 85.98Q114.61 86.33 114.11 86.57Q113.76 86.74 113.4 86.85Q112.56 87.11 111.71 87.12Q111.66 87.13 111.6 87.13Q110.05 87.13 109.22 86.35Q108.44 85.63 108.29 84.24L116 84.24L116 83.43Q116 81.13 114.88 79.72Q114.78 79.59 114.66 79.47Q114.29 79.07 113.85 78.77Q112.7 78.02 111.04 78.02Q109.71 78.02 108.62 78.54Q108.44 78.63 108.26 78.73Q107.72 79.05 107.28 79.47Q106.73 80 106.35 80.7Q105.66 81.95 105.66 83.63Q105.66 85.34 106.37 86.6Q106.67 87.12 107.06 87.53Q107.63 88.13 108.4 88.53ZM119.56 88.89Q120.74 89.22 122.11 89.22Q124.2 89.22 125.46 88.3Q126.03 87.89 126.34 87.32Q126.71 86.66 126.71 85.78Q126.71 84.9 126.3 84.29Q126.16 84.08 125.97 83.89Q125.24 83.19 123.81 82.93L121.6 82.51Q120.78 82.36 120.5 81.89Q120.35 81.65 120.35 81.31Q120.35 81.03 120.46 80.81Q120.59 80.53 120.87 80.33Q121.38 79.96 122.46 79.96Q123.28 79.96 124.17 80.26Q125.06 80.57 125.7 81.1L126.44 79.29Q125.7 78.66 124.64 78.34Q124.57 78.32 124.49 78.3Q123.51 78.02 122.44 78.02Q121.1 78.02 120.06 78.44Q119.05 78.85 118.47 79.59Q118.46 79.61 118.45 79.62Q118.29 79.83 118.17 80.06Q117.87 80.68 117.87 81.45Q117.87 82.38 118.29 83.02Q118.96 84.03 120.66 84.35L122.86 84.77Q123.86 84.97 124.13 85.52Q124.23 85.71 124.23 85.96Q124.23 86.2 124.14 86.41Q124.01 86.7 123.7 86.92Q123.19 87.28 122.14 87.28Q121.12 87.28 120.11 86.99Q119.1 86.69 118.29 86.14L117.58 87.94Q118.37 88.55 119.56 88.89ZM151.22 78.24L151.22 89L153.97 89L153.97 82.95Q153.97 81.91 154.45 81.21Q154.56 81.06 154.68 80.93Q154.87 80.73 155.09 80.59Q155.71 80.18 156.61 80.18Q157.46 80.18 157.93 80.6Q158 80.67 158.07 80.75Q158.54 81.31 158.54 82.57L158.54 89L161.29 89L161.29 82.44Q161.29 79.9 160.04 78.82Q159.11 78.02 157.49 78.02Q156.41 78.02 155.53 78.43Q155.46 78.46 155.38 78.5Q154.98 78.71 154.65 79Q154.21 79.38 153.9 79.91L153.9 78.24L151.22 78.24ZM165.55 88.76Q166.47 89.22 167.63 89.22Q168.71 89.22 169.51 88.74Q169.54 88.72 169.56 88.7Q169.97 88.44 170.26 88.09Q170.56 87.74 170.75 87.28L170.75 89L173.33 89L173.33 82.49Q173.33 80.2 172.19 79.11L172.19 79.11Q171.04 78.02 168.68 78.02Q167.92 78.02 167.05 78.18Q166.18 78.35 165.4 78.64Q164.62 78.94 164.04 79.34L164.84 81.21Q165.8 80.64 166.75 80.36Q167.7 80.08 168.6 80.08Q169.74 80.08 170.23 80.57Q170.71 81.05 170.71 82.15L170.71 82.61L169.94 82.61Q167.61 82.61 166.22 82.93Q164.84 83.23 164.22 83.92Q164.18 83.97 164.15 84.01Q163.6 84.69 163.6 85.8Q163.6 86.4 163.8 86.92Q163.92 87.25 164.12 87.54Q164.2 87.66 164.29 87.77Q164.78 88.38 165.55 88.76ZM210.84 88.52Q212.09 89.22 213.79 89.22Q214.8 89.22 215.82 88.88Q216.84 88.53 217.5 87.96L216.69 86.02Q216.37 86.32 216.01 86.53Q215.72 86.7 215.39 86.82Q214.67 87.08 214.03 87.08Q213.01 87.08 212.32 86.61Q212.04 86.42 211.81 86.15Q211.04 85.21 211.04 83.58Q211.04 81.93 211.81 81.04Q212 80.83 212.23 80.66Q212.94 80.15 214.03 80.15Q214.69 80.15 215.4 80.42Q215.73 80.54 216.04 80.71Q216.38 80.91 216.69 81.19L217.5 79.27Q216.84 78.68 215.83 78.35Q215.02 78.08 214.2 78.03Q213.99 78.02 213.79 78.02Q212.09 78.02 210.84 78.69Q210.21 79.02 209.73 79.5Q209.25 79.98 208.9 80.61Q208.22 81.85 208.22 83.56Q208.22 85.28 208.9 86.56Q209.26 87.23 209.79 87.74Q210.25 88.2 210.84 88.52ZM220.58 88.89Q221.77 89.22 223.13 89.22Q225.23 89.22 226.48 88.3Q227.05 87.89 227.36 87.32Q227.73 86.66 227.73 85.78Q227.73 84.9 227.33 84.29Q227.19 84.08 227 83.89Q226.26 83.19 224.83 82.93L222.63 82.51Q221.81 82.36 221.52 81.89Q221.38 81.65 221.38 81.31Q221.38 81.03 221.48 80.81Q221.61 80.53 221.89 80.33Q222.41 79.96 223.49 79.96Q224.3 79.96 225.19 80.26Q226.08 80.57 226.72 81.1L227.47 79.29Q226.72 78.66 225.66 78.34Q225.59 78.32 225.52 78.3Q224.53 78.02 223.47 78.02Q222.12 78.02 221.09 78.44Q220.08 78.85 219.5 79.59Q219.48 79.61 219.47 79.62Q219.31 79.83 219.2 80.06Q218.89 80.68 218.89 81.45Q218.89 82.38 219.32 83.02Q219.98 84.03 221.68 84.35L223.89 84.77Q224.89 84.97 225.15 85.52Q225.25 85.71 225.25 85.96Q225.25 86.2 225.16 86.41Q225.03 86.7 224.73 86.92Q224.21 87.28 223.16 87.28Q222.14 87.28 221.13 86.99Q220.12 86.69 219.31 86.14L218.61 87.94Q219.39 88.55 220.58 88.89ZM185.8 88.55L183.82 92.95L186.66 92.95L193.13 78.24L190.36 78.24L187.28 85.76L184.26 78.24L181.34 78.24L185.8 88.55ZM203.2 78.24L203.2 89L205.95 89L205.95 78.24L203.2 78.24ZM109.65 80.28Q110.28 79.89 111.16 79.89Q112.06 79.89 112.65 80.32Q112.82 80.44 112.97 80.6Q113.62 81.31 113.71 82.66L108.29 82.66Q108.44 81.48 109.09 80.76Q109.14 80.69 109.2 80.64Q109.4 80.43 109.65 80.28ZM92.53 87.08Q92.04 87.32 91.42 87.32Q90.55 87.32 90.05 86.89Q90.03 86.88 90.01 86.86Q89.81 86.67 89.68 86.44Q89.51 86.1 89.51 85.68Q89.51 85.27 89.69 84.99Q89.89 84.69 90.31 84.52Q91.11 84.2 93.18 84.2L93.93 84.2L93.93 84.68Q93.93 85.45 93.6 86.05Q93.45 86.33 93.21 86.58Q92.91 86.9 92.53 87.08ZM169.31 87.08Q168.82 87.32 168.2 87.32Q167.33 87.32 166.83 86.89Q166.81 86.88 166.79 86.86Q166.59 86.67 166.46 86.44Q166.29 86.1 166.29 85.68Q166.29 85.27 166.47 84.99Q166.67 84.69 167.09 84.52Q167.89 84.2 169.96 84.2L170.71 84.2L170.71 84.68Q170.71 85.45 170.38 86.05Q170.23 86.33 169.99 86.58Q169.69 86.9 169.31 87.08Z" fill="#202224" fill-opacity="1.000000" fill-rule="evenodd"/>
</svg>
