<svg width="998.722656" height="195.653198" viewBox="0 0 998.723 195.653" fill="none" xmlns="http://www.w3.org/2000/svg" xmlns:xlink="http://www.w3.org/1999/xlink">
	<desc>
			Created with Pixso.
	</desc>
	<defs>
		<linearGradient x1="250.222733" y1="97.269608" x2="250.222733" y2="194.447906" id="paint_linear_1_26241_0" gradientUnits="userSpaceOnUse">
			<stop stop-color="#4379EE" stop-opacity="0.160784"/>
			<stop offset="1.000000" stop-color="#FFFFFF" stop-opacity="0.176471"/>
		</linearGradient>
		<linearGradient x1="140.905197" y1="174.958801" x2="998.722473" y2="174.958801" id="paint_linear_1_26241_1" gradientUnits="userSpaceOnUse">
			<stop stop-color="#42B6F6"/>
			<stop offset="1.000000" stop-color="#BFE8FF"/>
		</linearGradient>
	</defs>
	<path id="Gradient" d="M0.72 194.44L7.03 172.83L29.18 171.9L44.66 163.79L60.84 163.35L72.64 151.43L83.01 120.44L89.66 109.35L107.42 132.48L121.86 136L132.43 129.28L145.18 99.68L181.74 159.7L196.79 133.85L214.05 146.82L223.35 127.04L225.17 117.55L239.18 107.86L246.41 94.69L254.41 113.09L253.09 125.17L260.46 126.95L266.18 121.58L281.12 0.09L295.03 148.08L307.41 132.17L307.41 123.08L318 113.69L322.95 106.49L332.07 95.66L353.75 106.95L364.55 113.09L373.26 109.12L388.46 126.97L410.56 91.88L417.03 111.01L430.89 124.25L444.33 120.01L450.6 111.01L460.65 106.95L461.91 99.22L473.38 80.22L490.21 85.62L495.34 68.73L518.42 179.5L534.87 157.35L556.55 155.8L582.53 171.53L592.62 110.2L605.28 113.65L611.25 106.44L614.6 108.74L620.9 108.04L624.5 111.14L634.5 113.17L634.68 120.03L646.63 124.38L661.56 123.41L662.35 111.93L651.09 36.75L677.32 67.57L690.44 77.93L723.28 56.75L741.81 71.81L747.74 71.81L754.42 71.81L762.56 81.25L772.44 91.88L825.22 95.66L833.7 80.22L869.27 124.24L889.75 85.62L910.79 99.17L930.65 82.12L952.62 95.66L969.22 104.5L978.54 101.8L988.84 94.69L998.72 85.62L998.72 194.44L83.32 194.44L0.72 194.44Z" fill="url(#paint_linear_1_26241_0)" fill-opacity="1.000000" fill-rule="evenodd"/>
	<path id="Gradient" d="M7.03 172.83L29.18 171.9L44.66 163.79L60.84 163.35L72.64 151.43L83.01 120.44L89.66 109.35L107.42 132.48L121.86 136L132.43 129.28L145.18 99.68L181.74 159.7L196.79 133.85L214.05 146.82L223.35 127.04L225.17 117.55L239.18 107.86L246.41 94.69L254.41 113.09L253.09 125.17L260.46 126.95L266.18 121.58L281.12 0.09L295.03 148.08L307.41 132.17L307.41 123.08L318 113.69L322.95 106.49L332.07 95.66L353.75 106.95L364.55 113.09L373.26 109.12L388.46 126.97L410.56 91.88L417.03 111.01L430.89 124.25L444.33 120.01L450.6 111.01L460.65 106.95L461.91 99.22L473.38 80.22L490.21 85.62L495.34 68.73L518.42 179.5L534.87 157.35L556.55 155.8L582.53 171.53L592.62 110.2L605.28 113.65L611.25 106.44L614.6 108.74L620.9 108.04L624.5 111.14L634.5 113.17L634.68 120.03L646.63 124.38L661.56 123.41L662.35 111.93L651.09 36.75L677.32 67.57L690.44 77.93L723.28 56.75L741.81 71.81L747.74 71.81L754.42 71.81L762.56 81.25L772.44 91.88L825.22 95.66L833.7 80.22L869.27 124.24L889.75 85.62L910.79 99.17L930.65 82.12L952.62 95.66L969.22 104.5L978.54 101.8L988.84 94.69L998.72 85.62L998.72 194.44L83.32 194.44L0.72 194.44L7.03 172.83Z" stroke="url(#paint_linear_1_26241_1)" stroke-opacity="0" stroke-width="0.000000"/>
	<path id="Ouline Graph" d="" fill="#E13BA3" fill-opacity="0" fill-rule="nonzero"/>
	<path id="Ouline Graph" d="M0.72 195.44L7.1 173.02L29.24 172.09L44.72 163.97L60.9 163.52L72.69 151.59L83.07 120.55L89.85 109.45L107.47 132.61L121.91 136.13L132.48 129.41L145.03 99.3L181.78 159.87L196.83 133.98L214.09 146.97L223.39 127.17L225.2 117.66L239.21 107.96L246.44 94.77L254.43 113.19L253.11 125.29L260.49 127.08L266.21 121.69L281.12 0.09L295.05 148.23L307.43 132.3L307.43 123.2L318.01 113.79L322.96 106.58L332.09 95.74L353.76 107.05L364.55 113.19L373.27 109.22L388.46 127.09L410.56 91.96L417.03 111.12L430.89 124.37L444.32 120.13L450.59 111.11L460.64 107.04L461.91 99.3L473.37 80.28L490.19 85.68L495.42 70.61L518.4 179.7L534.85 157.52L556.53 155.97L582.5 171.71L592.59 110.3L605.25 113.76L611.21 106.54L614.57 108.84L620.87 108.14L624.46 111.24L634.46 113.27L634.64 120.14L646.59 124.5L661.52 123.53L662.31 112.03L651.09 36.75L677.28 67.62L690.4 77.99L723.23 56.78L741.48 71.86L754.09 71.86L772.36 91.96L797.14 95.74L824.86 95.74L833.34 80.28L852.77 104.47L868.9 125.29L889.85 85.68C889.85 85.68 909.02 100.34 911.22 99.3C913.43 98.27 931.75 82.09 931.75 82.09L949.52 94.77L970.76 106.58L988.41 95.74L996.72 85.68L994.33 85.68L995.61 85.68" stroke="#4379EE" stroke-opacity="1.000000" stroke-width="1.500000"/>
</svg>
