<svg width="998.000000" height="194.356567" viewBox="0 0 998 194.357" fill="none" xmlns="http://www.w3.org/2000/svg" xmlns:xlink="http://www.w3.org/1999/xlink">
	<desc>
			Created with Pixso.
	</desc>
	<defs>
		<linearGradient x1="249.500076" y1="97.178299" x2="249.500076" y2="194.356598" id="paint_linear_1_26241_0" gradientUnits="userSpaceOnUse">
			<stop stop-color="#4379EE" stop-opacity="0.160784"/>
			<stop offset="1.000000" stop-color="#FFFFFF" stop-opacity="0.176471"/>
		</linearGradient>
		<linearGradient x1="140.182541" y1="174.867493" x2="997.999817" y2="174.867493" id="paint_linear_1_26241_1" gradientUnits="userSpaceOnUse">
			<stop stop-color="#42B6F6"/>
			<stop offset="1.000000" stop-color="#BFE8FF"/>
		</linearGradient>
	</defs>
	<path id="Gradient" d="M0 194.35L6.31 172.74L28.46 171.81L43.94 163.7L60.12 163.26L71.91 151.34L82.29 120.35L88.94 109.26L106.69 132.39L121.14 135.91L131.71 129.19L144.46 99.59L181.02 159.61L196.07 133.76L213.33 146.73L222.63 126.95L224.44 117.46L238.46 107.77L245.69 94.6L253.69 113L252.36 125.08L259.74 126.86L265.46 121.49L280.4 0L294.3 147.99L306.69 132.08L306.69 122.99L317.27 113.6L322.23 106.4L331.35 95.57L353.03 106.86L363.82 113L372.53 109.02L387.73 126.88L409.84 91.79L416.3 110.92L430.17 124.16L443.6 119.92L449.88 110.92L459.93 106.86L461.19 99.13L472.66 80.13L489.48 85.52L494.62 68.64L517.69 179.41L534.15 157.26L555.83 155.71L581.81 171.43L591.9 110.11L604.56 113.56L610.52 106.35L613.88 108.65L620.18 107.95L623.78 111.05L633.78 113.07L633.96 119.94L645.9 124.29L660.84 123.32L661.62 111.84L650.37 36.66L676.6 67.48L689.72 77.84L722.55 56.66L741.09 71.72L747.02 71.72L753.7 71.72L761.84 81.16L771.72 91.79L824.5 95.57L832.98 80.13L868.55 124.15L889.03 85.52L910.07 99.08L929.93 82.03L951.9 95.57L968.5 104.4L977.82 101.7L988.11 94.6L998 85.52L998 194.35L82.6 194.35L0 194.35Z" fill="url(#paint_linear_1_26241_0)" fill-opacity="1.000000" fill-rule="evenodd"/>
	<path id="Gradient" d="M6.31 172.74L28.46 171.81L43.94 163.7L60.12 163.26L71.91 151.34L82.29 120.35L88.94 109.26L106.69 132.39L121.14 135.91L131.71 129.19L144.46 99.59L181.02 159.61L196.07 133.76L213.33 146.73L222.63 126.95L224.44 117.46L238.46 107.77L245.69 94.6L253.69 113L252.36 125.08L259.74 126.86L265.46 121.49L280.4 0L294.3 147.99L306.69 132.08L306.69 122.99L317.27 113.6L322.23 106.4L331.35 95.57L353.03 106.86L363.82 113L372.53 109.02L387.73 126.88L409.84 91.79L416.3 110.92L430.17 124.16L443.6 119.92L449.88 110.92L459.93 106.86L461.19 99.13L472.66 80.13L489.48 85.52L494.62 68.64L517.69 179.41L534.15 157.26L555.83 155.71L581.81 171.43L591.9 110.11L604.56 113.56L610.52 106.35L613.88 108.65L620.18 107.95L623.78 111.05L633.78 113.07L633.96 119.94L645.9 124.29L660.84 123.32L661.62 111.84L650.37 36.66L676.6 67.48L689.72 77.84L722.55 56.66L741.09 71.72L747.02 71.72L753.7 71.72L761.84 81.16L771.72 91.79L824.5 95.57L832.98 80.13L868.55 124.15L889.03 85.52L910.07 99.08L929.93 82.03L951.9 95.57L968.5 104.4L977.82 101.7L988.11 94.6L998 85.52L998 194.35L82.6 194.35L0 194.35L6.31 172.74Z" stroke="url(#paint_linear_1_26241_1)" stroke-opacity="0" stroke-width="0.000000"/>
</svg>
