<svg width="29.000000" height="30.500000" viewBox="0 0 29 30.5" fill="none" xmlns="http://www.w3.org/2000/svg" xmlns:xlink="http://www.w3.org/1999/xlink">
	<desc>
			Created with Pixso.
	</desc>
	<defs/>
	<path id="Combined Shape" d="M10.0276 5L13.9724 5C16.2654 5 18.1917 6.72412 18.4448 9.00305L19.5 18.5L22.5 18.5C23.3284 18.5 24 19.1716 24 20L24 21.5C24 22.3284 23.3284 23 22.5 23L1.5 23C0.671631 23 0 22.3284 0 21.5L0 20C0 19.1716 0.671631 18.5 1.5 18.5L4.5 18.5L5.55518 9.00305C5.80835 6.72412 7.73462 5 10.0276 5Z" clip-rule="evenodd" fill="#4880FF" fill-opacity="1.000000" fill-rule="evenodd"/>
	<g opacity="0.300000">
		<rect id="Rectangle 23" x="9.000000" y="24.500000" rx="2.250000" width="6.000000" height="6.000000" fill="#FF0000" fill-opacity="1.000000"/>
	</g>
	<path id="Oval" d="M21 16C25.41 16 29 12.41 29 8C29 3.58 25.41 0 21 0C16.58 0 13 3.58 13 8C13 12.41 16.58 16 21 16Z" fill="#F93C65" fill-opacity="1.000000" fill-rule="evenodd"/>
	<path id="Oval" d="M29 8C29 3.58 25.41 0 21 0C16.58 0 13 3.58 13 8C13 12.41 16.58 16 21 16C25.41 16 29 12.41 29 8Z" stroke="#979797" stroke-opacity="0" stroke-width="0.000000"/>
	<path id="6" d="M19.17 11.65Q19.89 12.12 20.91 12.12Q21.69 12.12 22.3 11.78Q22.33 11.77 22.37 11.75Q22.67 11.57 22.91 11.34Q23.16 11.08 23.35 10.74Q23.38 10.69 23.41 10.63Q23.7 10.03 23.7 9.28Q23.7 8.49 23.38 7.88Q23.16 7.47 22.84 7.19Q22.68 7.04 22.49 6.92Q22.38 6.86 22.27 6.8Q21.79 6.57 21.2 6.57Q20.66 6.57 20.21 6.77Q20.05 6.85 19.9 6.94Q19.68 7.09 19.52 7.27Q19.24 7.57 19.08 7.98L19.08 7.63Q19.08 6.17 19.63 5.44Q19.82 5.19 20.07 5.03Q20.55 4.71 21.23 4.71Q21.39 4.71 21.55 4.73Q21.91 4.77 22.26 4.91Q22.77 5.11 23.21 5.51L23.72 4.36Q23.68 4.33 23.65 4.3Q23.2 3.89 22.58 3.66Q22.01 3.45 21.43 3.42Q21.34 3.41 21.25 3.41Q20.14 3.41 19.35 3.91Q18.92 4.18 18.58 4.59Q17.62 5.77 17.62 7.91Q17.62 9.91 18.48 11.01Q18.78 11.4 19.17 11.65ZM21.57 10.7Q21.25 10.89 20.82 10.89Q20.39 10.89 20.07 10.7Q19.91 10.61 19.77 10.47Q19.69 10.38 19.63 10.28Q19.37 9.9 19.37 9.34Q19.37 8.79 19.63 8.4Q19.69 8.3 19.77 8.22Q19.91 8.06 20.09 7.96Q20.4 7.78 20.82 7.78Q21.24 7.78 21.55 7.96Q21.73 8.06 21.87 8.22Q21.95 8.3 22.02 8.4Q22.27 8.79 22.27 9.34Q22.27 9.9 22.02 10.28Q21.95 10.38 21.87 10.47Q21.74 10.61 21.57 10.7Z" fill="#FFFFFF" fill-opacity="1.000000" fill-rule="evenodd"/>
</svg>
