<svg width="60.000000" height="60.000000" viewBox="0 0 60 60" fill="none" xmlns="http://www.w3.org/2000/svg" xmlns:xlink="http://www.w3.org/1999/xlink">
	<desc>
			Created with Pixso.
	</desc>
	<defs/>
	<g opacity="0.300000">
		<mask id="mask_1_26285" fill="white">
			<path id="Circle 2" d="M30 0L23 0C10.2969 0 0 10.2975 0 23L0 37C0 49.7025 10.2969 60 23 60L30 60L30.0117 60L37 60C49.7031 60 60 49.7025 60 37L60 23C60 10.2975 49.7031 0 37 0L30 0Z" clip-rule="evenodd" fill="" fill-opacity="1.000000" fill-rule="evenodd"/>
		</mask>
		<path id="Circle 2" d="M30 0L23 0C10.2969 0 0 10.2975 0 23L0 37C0 49.7025 10.2969 60 23 60L30 60L30.0117 60L37 60C49.7031 60 60 49.7025 60 37L60 23C60 10.2975 49.7031 0 37 0L30 0Z" clip-rule="evenodd" fill="#FF9066" fill-opacity="1.000000" fill-rule="evenodd" mask="url(#mask_1_26285)"/>
		<path id="Circle 2" d="" fill="#979797" fill-opacity="0.000000" fill-rule="nonzero"/>
	</g>
	<g opacity="0.780000">
		<path id="Path 107" d="M29.12 23.34L29.54 23.34C29.8 23.34 30.01 23.54 30.04 23.79L30.66 30.01L35.08 32.53C35.23 32.62 35.33 32.79 35.33 32.97L35.33 33.35C35.33 33.68 35.01 33.92 34.69 33.84L28.39 32.12C28.16 32.05 28.01 31.84 28.03 31.6L28.62 23.8C28.64 23.54 28.86 23.34 29.12 23.34Z" fill="#FF9066" fill-opacity="1.000000" fill-rule="evenodd"/>
	</g>
	<g opacity="0.901274">
		<path id="Combined Shape" d="M20.2188 22.038L21.8516 15.1898C21.9492 14.7902 22.457 14.6697 22.7227 14.9845L24.5195 17.1272C26.2031 16.4105 28.0547 16.0139 30 16.0139C37.7305 16.0139 44 22.282 44 30.0139C44 37.746 37.7305 44.0139 30 44.0139C22.2695 44.0139 16 37.746 16 30.0139C16 28.7008 16.1797 27.4298 16.5195 26.2246L19.0859 26.9448C18.8086 27.934 18.668 28.9631 18.668 30.0139C18.668 36.2732 23.7422 41.3473 30 41.3473C36.2578 41.3473 41.332 36.2732 41.332 30.0139C41.332 23.7546 36.2578 18.6805 30 18.6805C28.7305 18.6805 27.4961 18.8885 26.332 19.2865L28.1328 21.4333C28.3984 21.7487 28.1875 22.2307 27.7773 22.254L20.7344 22.6532C20.3984 22.6721 20.1406 22.3636 20.2188 22.038Z" clip-rule="evenodd" fill="#FF9066" fill-opacity="1.000000" fill-rule="evenodd"/>
	</g>
</svg>
