<svg width="938.000000" height="205.000000" viewBox="0 0 938 205" fill="none" xmlns="http://www.w3.org/2000/svg" xmlns:xlink="http://www.w3.org/1999/xlink">
	<desc>
			Created with Pixso.
	</desc>
	<defs/>
	<path id="Oval" d="M283 8C285.21 8 287 6.2 287 4C287 1.79 285.21 0 283 0C280.78 0 279 1.79 279 4C279 6.2 280.78 8 283 8Z" fill="#4880FF" fill-opacity="1.000000" fill-rule="evenodd"/>
	<path id="Oval" d="M287 4C287 1.79 285.21 0 283 0C280.78 0 279 1.79 279 4C279 6.2 280.78 8 283 8C285.21 8 287 6.2 287 4Z" stroke="#979797" stroke-opacity="0" stroke-width="0.000000"/>
	<path id="Oval" d="M249 107C251.21 107 253 105.2 253 103C253 100.79 251.21 99 249 99C246.78 99 245 100.79 245 103C245 105.2 246.78 107 249 107Z" fill="#4379EE" fill-opacity="1.000000" fill-rule="evenodd"/>
	<path id="Oval" d="M253 103C253 100.79 251.21 99 249 99C246.78 99 245 100.79 245 103C245 105.2 246.78 107 249 107C251.21 107 253 105.2 253 103Z" stroke="#979797" stroke-opacity="0" stroke-width="0.000000"/>
	<path id="Oval" d="M184 171C186.21 171 188 169.2 188 167C188 164.79 186.21 163 184 163C181.78 163 180 164.79 180 167C180 169.2 181.78 171 184 171Z" fill="#4379EE" fill-opacity="1.000000" fill-rule="evenodd"/>
	<path id="Oval" d="M188 167C188 164.79 186.21 163 184 163C181.78 163 180 164.79 180 167C180 169.2 181.78 171 184 171C186.21 171 188 169.2 188 167Z" stroke="#979797" stroke-opacity="0" stroke-width="0.000000"/>
	<path id="Oval" d="M148 111C150.21 111 152 109.2 152 107C152 104.79 150.21 103 148 103C145.78 103 144 104.79 144 107C144 109.2 145.78 111 148 111Z" fill="#4379EE" fill-opacity="1.000000" fill-rule="evenodd"/>
	<path id="Oval" d="M152 107C152 104.79 150.21 103 148 103C145.78 103 144 104.79 144 107C144 109.2 145.78 111 148 111C150.21 111 152 109.2 152 107Z" stroke="#979797" stroke-opacity="0" stroke-width="0.000000"/>
	<path id="Oval" d="M92 120C94.21 120 96 118.2 96 116C96 113.79 94.21 112 92 112C89.78 112 88 113.79 88 116C88 118.2 89.78 120 92 120Z" fill="#4379EE" fill-opacity="1.000000" fill-rule="evenodd"/>
	<path id="Oval" d="M96 116C96 113.79 94.21 112 92 112C89.78 112 88 113.79 88 116C88 118.2 89.78 120 92 120C94.21 120 96 118.2 96 116Z" stroke="#979797" stroke-opacity="0" stroke-width="0.000000"/>
	<path id="Oval" d="M62 175C64.21 175 66 173.2 66 171C66 168.79 64.21 167 62 167C59.78 167 58 168.79 58 171C58 173.2 59.78 175 62 175Z" fill="#4379EE" fill-opacity="1.000000" fill-rule="evenodd"/>
	<path id="Oval" d="M66 171C66 168.79 64.21 167 62 167C59.78 167 58 168.79 58 171C58 173.2 59.78 175 62 175C64.21 175 66 173.2 66 171Z" stroke="#979797" stroke-opacity="0" stroke-width="0.000000"/>
	<path id="Oval" d="M4 205C6.21 205 8 203.2 8 201C8 198.79 6.21 197 4 197C1.78 197 0 198.79 0 201C0 203.2 1.78 205 4 205Z" fill="#4379EE" fill-opacity="1.000000" fill-rule="evenodd"/>
	<path id="Oval" d="M8 201C8 198.79 6.21 197 4 197C1.78 197 0 198.79 0 201C0 203.2 1.78 205 4 205C6.21 205 8 203.2 8 201Z" stroke="#979797" stroke-opacity="0" stroke-width="0.000000"/>
	<path id="Oval" d="M334 108C336.21 108 338 106.2 338 104C338 101.79 336.21 100 334 100C331.78 100 330 101.79 330 104C330 106.2 331.78 108 334 108Z" fill="#4379EE" fill-opacity="1.000000" fill-rule="evenodd"/>
	<path id="Oval" d="M338 104C338 101.79 336.21 100 334 100C331.78 100 330 101.79 330 104C330 106.2 331.78 108 334 108C336.21 108 338 106.2 338 104Z" stroke="#979797" stroke-opacity="0" stroke-width="0.000000"/>
	<path id="Oval" d="M413 102C415.21 102 417 100.2 417 98C417 95.79 415.21 94 413 94C410.78 94 409 95.79 409 98C409 100.2 410.78 102 413 102Z" fill="#4379EE" fill-opacity="1.000000" fill-rule="evenodd"/>
	<path id="Oval" d="M417 98C417 95.79 415.21 94 413 94C410.78 94 409 95.79 409 98C409 100.2 410.78 102 413 102C415.21 102 417 100.2 417 98Z" stroke="#979797" stroke-opacity="0" stroke-width="0.000000"/>
	<path id="Oval" d="M498 81C500.21 81 502 79.2 502 77C502 74.79 500.21 73 498 73C495.78 73 494 74.79 494 77C494 79.2 495.78 81 498 81Z" fill="#4379EE" fill-opacity="1.000000" fill-rule="evenodd"/>
	<path id="Oval" d="M502 77C502 74.79 500.21 73 498 73C495.78 73 494 74.79 494 77C494 79.2 495.78 81 498 81C500.21 81 502 79.2 502 77Z" stroke="#979797" stroke-opacity="0" stroke-width="0.000000"/>
	<path id="Oval" d="M520 191C522.21 191 524 189.2 524 187C524 184.79 522.21 183 520 183C517.78 183 516 184.79 516 187C516 189.2 517.78 191 520 191Z" fill="#4379EE" fill-opacity="1.000000" fill-rule="evenodd"/>
	<path id="Oval" d="M524 187C524 184.79 522.21 183 520 183C517.78 183 516 184.79 516 187C516 189.2 517.78 191 520 191C522.21 191 524 189.2 524 187Z" stroke="#979797" stroke-opacity="0" stroke-width="0.000000"/>
	<path id="Oval" d="M585 183C587.21 183 589 181.2 589 179C589 176.79 587.21 175 585 175C582.78 175 581 176.79 581 179C581 181.2 582.78 183 585 183Z" fill="#4379EE" fill-opacity="1.000000" fill-rule="evenodd"/>
	<path id="Oval" d="M589 179C589 176.79 587.21 175 585 175C582.78 175 581 176.79 581 179C581 181.2 582.78 183 585 183C587.21 183 589 181.2 589 179Z" stroke="#979797" stroke-opacity="0" stroke-width="0.000000"/>
	<path id="Oval" d="M654 49C656.21 49 658 47.2 658 45C658 42.79 656.21 41 654 41C651.78 41 650 42.79 650 45C650 47.2 651.78 49 654 49Z" fill="#4379EE" fill-opacity="1.000000" fill-rule="evenodd"/>
	<path id="Oval" d="M658 45C658 42.79 656.21 41 654 41C651.78 41 650 42.79 650 45C650 47.2 651.78 49 654 49C656.21 49 658 47.2 658 45Z" stroke="#979797" stroke-opacity="0" stroke-width="0.000000"/>
	<path id="Oval" d="M663 134C665.21 134 667 132.2 667 130C667 127.79 665.21 126 663 126C660.78 126 659 127.79 659 130C659 132.2 660.78 134 663 134Z" fill="#4379EE" fill-opacity="1.000000" fill-rule="evenodd"/>
	<path id="Oval" d="M667 130C667 127.79 665.21 126 663 126C660.78 126 659 127.79 659 130C659 132.2 660.78 134 663 134C665.21 134 667 132.2 667 130Z" stroke="#979797" stroke-opacity="0" stroke-width="0.000000"/>
	<path id="Oval" d="M692 89C694.21 89 696 87.2 696 85C696 82.79 694.21 81 692 81C689.78 81 688 82.79 688 85C688 87.2 689.78 89 692 89Z" fill="#4379EE" fill-opacity="1.000000" fill-rule="evenodd"/>
	<path id="Oval" d="M696 85C696 82.79 694.21 81 692 81C689.78 81 688 82.79 688 85C688 87.2 689.78 89 692 89C694.21 89 696 87.2 696 85Z" stroke="#979797" stroke-opacity="0" stroke-width="0.000000"/>
	<path id="Oval" d="M724 69C726.21 69 728 67.2 728 65C728 62.79 726.21 61 724 61C721.78 61 720 62.79 720 65C720 67.2 721.78 69 724 69Z" fill="#4379EE" fill-opacity="1.000000" fill-rule="evenodd"/>
	<path id="Oval" d="M728 65C728 62.79 726.21 61 724 61C721.78 61 720 62.79 720 65C720 67.2 721.78 69 724 69C726.21 69 728 67.2 728 65Z" stroke="#979797" stroke-opacity="0" stroke-width="0.000000"/>
	<path id="Oval" d="M836 92C838.21 92 840 90.2 840 88C840 85.79 838.21 84 836 84C833.78 84 832 85.79 832 88C832 90.2 833.78 92 836 92Z" fill="#4379EE" fill-opacity="1.000000" fill-rule="evenodd"/>
	<path id="Oval" d="M840 88C840 85.79 838.21 84 836 84C833.78 84 832 85.79 832 88C832 90.2 833.78 92 836 92C838.21 92 840 90.2 840 88Z" stroke="#979797" stroke-opacity="0" stroke-width="0.000000"/>
	<path id="Oval" d="M871 138C873.21 138 875 136.2 875 134C875 131.79 873.21 130 871 130C868.78 130 867 131.79 867 134C867 136.2 868.78 138 871 138Z" fill="#4379EE" fill-opacity="1.000000" fill-rule="evenodd"/>
	<path id="Oval" d="M875 134C875 131.79 873.21 130 871 130C868.78 130 867 131.79 867 134C867 136.2 868.78 138 871 138C873.21 138 875 136.2 875 134Z" stroke="#979797" stroke-opacity="0" stroke-width="0.000000"/>
	<path id="Oval" d="M892 97C894.21 97 896 95.2 896 93C896 90.79 894.21 89 892 89C889.78 89 888 90.79 888 93C888 95.2 889.78 97 892 97Z" fill="#4379EE" fill-opacity="1.000000" fill-rule="evenodd"/>
	<path id="Oval" d="M896 93C896 90.79 894.21 89 892 89C889.78 89 888 90.79 888 93C888 95.2 889.78 97 892 97C894.21 97 896 95.2 896 93Z" stroke="#979797" stroke-opacity="0" stroke-width="0.000000"/>
	<path id="Oval" d="M934 95C936.21 95 938 93.2 938 91C938 88.79 936.21 87 934 87C931.78 87 930 88.79 930 91C930 93.2 931.78 95 934 95Z" fill="#4379EE" fill-opacity="1.000000" fill-rule="evenodd"/>
	<path id="Oval" d="M938 91C938 88.79 936.21 87 934 87C931.78 87 930 88.79 930 91C930 93.2 931.78 95 934 95C936.21 95 938 93.2 938 91Z" stroke="#979797" stroke-opacity="0" stroke-width="0.000000"/>
</svg>
