<svg width="998.000000" height="209.132812" viewBox="0 0 998 209.133" fill="none" xmlns="http://www.w3.org/2000/svg" xmlns:xlink="http://www.w3.org/1999/xlink">
	<desc>
			Created with Pixso.
	</desc>
	<defs/>
	<g opacity="0.780000">
		<path id="1" d="M0 209C0 209 60.52 59.4 84.83 59.4C109.14 59.4 163.89 170.84 224.48 170.84C285.07 170.84 304.21 132.11 382.32 116.63C460.42 101.14 465.08 189.6 503.73 189.6C542.39 189.6 600.19 96.9 628.32 96.9C654.94 96.9 664.86 189.6 746.76 189.6C828.66 189.6 879.75 0 916.87 0C953.99 0 994 209 994 209L0 209Z" fill="#DBA5FF" fill-opacity="1.000000" fill-rule="evenodd"/>
		<path id="1" d="M84.83 59.4C109.14 59.4 163.89 170.84 224.48 170.84C285.07 170.84 304.21 132.11 382.32 116.63C460.42 101.14 465.08 189.6 503.73 189.6C542.39 189.6 600.19 96.9 628.32 96.9C654.94 96.9 664.86 189.6 746.76 189.6C828.66 189.6 879.75 0 916.87 0C953.99 0 994 209 994 209L0 209C0 209 60.52 59.4 84.83 59.4Z" stroke="#979797" stroke-opacity="0" stroke-width="0.000000"/>
	</g>
	<path id="2" d="M0 209.13C0 209.13 54.62 169.53 100.58 169.53C146.54 169.53 149.61 187.7 233.06 187.7C316.51 187.7 346.5 104.63 361.71 104.63C376.91 104.63 378.09 169.53 418.48 169.53C463.76 169.53 495.53 0.13 528.8 0.13C571.01 0.13 593.3 152.58 631.25 152.58C669.21 152.58 692.46 71.7 731.19 71.7C765.6 71.7 789.93 155.5 814.6 164.94C840.63 174.9 852.62 95.67 901.56 95.67C950.5 95.67 998 209.13 998 209.13L0 209.13Z" fill="#FF8F6D" fill-opacity="0.800000" fill-rule="evenodd"/>
</svg>
