<svg width="60.000000" height="60.000000" viewBox="0 0 60 60" fill="none" xmlns="http://www.w3.org/2000/svg" xmlns:xlink="http://www.w3.org/1999/xlink">
	<desc>
			Created with Pixso.
	</desc>
	<defs/>
	<g opacity="0.210000">
		<mask id="mask_1_26304" fill="white">
			<path id="Circle 2" d="M30 0L23 0C10.2969 0 0 10.2975 0 23L0 37C0 49.7025 10.2969 60 23 60L30 60L30.0117 60L37 60C49.7031 60 60 49.7025 60 37L60 23C60 10.2975 49.7031 0 37 0L30 0Z" clip-rule="evenodd" fill="" fill-opacity="1.000000" fill-rule="evenodd"/>
		</mask>
		<path id="Circle 2" d="M30 0L23 0C10.2969 0 0 10.2975 0 23L0 37C0 49.7025 10.2969 60 23 60L30 60L30.0117 60L37 60C49.7031 60 60 49.7025 60 37L60 23C60 10.2975 49.7031 0 37 0L30 0Z" clip-rule="evenodd" fill="#4AD991" fill-opacity="1.000000" fill-rule="evenodd" mask="url(#mask_1_26304)"/>
		<path id="Circle 2" d="" fill="#979797" fill-opacity="0.000000" fill-rule="nonzero"/>
	</g>
	<path id="Path 95" d="M19.1 40.88L42.44 40.88C43.3 40.88 44 41.58 44 42.44C44 43.3 43.3 44 42.44 44L17.55 44C16.69 44 16 43.3 16 42.44L16 17.55C16 16.69 16.69 16 17.55 16C18.41 16 19.1 16.69 19.1 17.55L19.1 40.88Z" fill="#4AD991" fill-opacity="1.000000" fill-rule="nonzero"/>
	<g opacity="0.500000">
		<path id="Path 97" d="M24.91 34.17C24.32 34.8 23.33 34.83 22.71 34.24C22.08 33.65 22.05 32.67 22.64 32.04L28.47 25.82C29.04 25.21 29.98 25.16 30.62 25.7L35.22 29.63L41.22 22.03C41.75 21.36 42.73 21.24 43.41 21.77C44.08 22.31 44.19 23.28 43.66 23.96L36.66 32.83C36.11 33.52 35.1 33.62 34.43 33.04L29.73 29.03L24.91 34.17Z" fill="#4AD991" fill-opacity="1.000000" fill-rule="nonzero"/>
	</g>
</svg>
