<svg width="126.000000" height="19.000000" viewBox="0 0 126 19" fill="none" xmlns="http://www.w3.org/2000/svg" xmlns:xlink="http://www.w3.org/1999/xlink">
	<desc>
			Created with Pixso.
	</desc>
	<defs/>
	<g opacity="0.200000">
		<path id="Gray Star" d="M80 12.88L75.29 16.47L77.26 10.89L72.39 7.52L78.3 7.67L80 2L81.69 7.67L87.6 7.52L82.73 10.89L84.7 16.47L80 12.88Z" fill="#000000" fill-opacity="1.000000" fill-rule="evenodd"/>
	</g>
	<path id="Star" d="M62 12.88L57.29 16.47L59.26 10.89L54.39 7.52L60.3 7.67L62 2L63.69 7.67L69.6 7.52L64.73 10.89L66.7 16.47L62 12.88Z" fill="#FF9500" fill-opacity="1.000000" fill-rule="evenodd"/>
	<path id="Star" d="M44 12.88L39.29 16.47L41.26 10.89L36.39 7.52L42.3 7.67L44 2L45.69 7.67L51.6 7.52L46.73 10.89L48.7 16.47L44 12.88Z" fill="#FF9500" fill-opacity="1.000000" fill-rule="evenodd"/>
	<path id="Star" d="M26 12.88L21.29 16.47L23.26 10.89L18.39 7.52L24.3 7.67L26 2L27.69 7.67L33.6 7.52L28.73 10.89L30.7 16.47L26 12.88Z" fill="#FF9500" fill-opacity="1.000000" fill-rule="evenodd"/>
	<path id="Star" d="M8 12.88L3.29 16.47L5.26 10.89L0.39 7.52L6.3 7.67L8 2L9.69 7.67L15.6 7.52L10.73 10.89L12.7 16.47L8 12.88Z" fill="#FF9500" fill-opacity="1.000000" fill-rule="evenodd"/>
	<g opacity="0.400000">
		<path id="Number" d="M93.84 13.57Q94.26 15.16 95.21 16.71L96.21 16.32Q95.54 14.74 95.23 13.29Q94.92 11.84 94.92 10.31Q94.92 8.77 95.23 7.33Q95.54 5.89 96.21 4.31L95.21 3.92Q94.26 5.47 93.84 7.06Q93.72 7.5 93.63 7.95Q93.41 9.11 93.41 10.31Q93.41 11.42 93.6 12.49Q93.69 13.04 93.84 13.57ZM121.72 16.32L122.72 16.71Q123.67 15.16 124.1 13.57Q124.24 13.04 124.34 12.49Q124.52 11.42 124.52 10.31Q124.52 9.31 124.37 8.34Q124.27 7.7 124.1 7.07Q123.67 5.48 122.72 3.92L121.72 4.31Q122.38 5.92 122.69 7.36Q123 8.8 123 10.31Q123 11.82 122.69 13.27Q122.38 14.71 121.72 16.32ZM106.95 13.83Q107.84 14.12 108.81 14.12Q110.41 14.12 111.33 13.37Q111.67 13.08 111.89 12.71Q112.24 12.11 112.24 11.31Q112.24 10.5 111.88 9.92Q111.83 9.83 111.77 9.75Q111.66 9.61 111.54 9.49Q111.1 9.06 110.41 8.89Q110.88 8.7 111.22 8.38Q111.4 8.21 111.55 7.99Q111.64 7.85 111.72 7.69Q111.96 7.18 111.96 6.56Q111.96 5.77 111.6 5.21Q111.42 4.91 111.13 4.68Q110.31 4 108.83 4Q108.18 4 107.57 4.15Q107.29 4.22 107.03 4.32Q106.17 4.63 105.59 5.2L106.1 6.31Q106.73 5.7 107.49 5.43Q108.07 5.23 108.71 5.23Q109.6 5.23 110.07 5.62Q110.21 5.73 110.32 5.88Q110.55 6.22 110.55 6.71Q110.55 7.26 110.3 7.64Q110.19 7.81 110.04 7.95Q110.02 7.96 110 7.98Q109.5 8.4 108.65 8.4L107.26 8.4L107.26 9.61L108.79 9.61Q109.78 9.61 110.3 10.01Q110.43 10.1 110.53 10.22Q110.83 10.6 110.83 11.21Q110.83 11.8 110.55 12.19Q110.45 12.34 110.3 12.45Q109.78 12.89 108.77 12.89Q108.04 12.89 107.38 12.67Q107.33 12.66 107.29 12.64Q106.58 12.39 105.93 11.85L105.43 12.97Q106.03 13.52 106.92 13.82Q106.94 13.83 106.95 13.83ZM98.17 12.78L98.17 14L103.95 14L103.95 12.78L101.85 12.78L101.85 4.12L100.83 4.12L98.07 5.82L98.66 6.9L100.41 5.81L100.41 12.78L98.17 12.78ZM114.64 12.78L114.64 14L120.42 14L120.42 12.78L118.32 12.78L118.32 4.12L117.3 4.12L114.54 5.82L115.13 6.9L116.88 5.81L116.88 12.78L114.64 12.78Z" fill="#000000" fill-opacity="1.000000" fill-rule="evenodd"/>
	</g>
</svg>
