<svg width="80.000000" height="27.977051" viewBox="0 0 80 27.9771" fill="none" xmlns="http://www.w3.org/2000/svg" xmlns:xlink="http://www.w3.org/1999/xlink">
	<desc>
			Created with Pixso.
	</desc>
	<defs/>
	<mask id="mask_1_26244" fill="white">
		<path id="Combined Shape" d="M0 2L0 20C0 21.1046 0.894531 22 2 22L34 22L40 27.9771L46 22L78 22C79.1055 22 80 21.1046 80 20L80 2C80 0.895386 79.1055 0 78 0L2 0C0.894531 0 0 0.895386 0 2Z" clip-rule="evenodd" fill="" fill-opacity="1.000000" fill-rule="evenodd"/>
	</mask>
	<path id="Combined Shape" d="M0 2L0 20C0 21.1046 0.894531 22 2 22L34 22L40 27.9771L46 22L78 22C79.1055 22 80 21.1046 80 20L80 2C80 0.895386 79.1055 0 78 0L2 0C0.894531 0 0 0.895386 0 2Z" clip-rule="evenodd" fill="#4880FF" fill-opacity="1.000000" fill-rule="evenodd" mask="url(#mask_1_26244)"/>
	<path id="Combined Shape" d="" fill="#F1963A" fill-opacity="0.000000" fill-rule="nonzero"/>
	<path id="64,3664.77" d="M12.17 13.65Q12.89 14.12 13.91 14.12Q14.69 14.12 15.3 13.78Q15.33 13.77 15.37 13.75Q15.67 13.57 15.91 13.34Q16.16 13.08 16.35 12.74Q16.38 12.69 16.41 12.63Q16.7 12.03 16.7 11.28Q16.7 10.49 16.38 9.88Q16.16 9.47 15.84 9.19Q15.68 9.04 15.49 8.92Q15.38 8.86 15.27 8.8Q14.79 8.57 14.2 8.57Q13.66 8.57 13.21 8.77Q13.05 8.85 12.9 8.94Q12.68 9.09 12.52 9.27Q12.24 9.57 12.08 9.98L12.08 9.63Q12.08 8.17 12.63 7.44Q12.82 7.19 13.07 7.03Q13.55 6.71 14.23 6.71Q14.39 6.71 14.55 6.73Q14.91 6.77 15.26 6.91Q15.77 7.11 16.21 7.51L16.72 6.36Q16.68 6.33 16.65 6.3Q16.2 5.89 15.58 5.66Q15.01 5.45 14.43 5.42Q14.34 5.41 14.25 5.41Q13.14 5.41 12.35 5.91Q11.92 6.18 11.58 6.59Q10.62 7.77 10.62 9.91Q10.62 11.91 11.48 13.01Q11.78 13.4 12.17 13.65ZM29.35 13.92Q30.05 14.12 30.8 14.12Q32.23 14.12 33.05 13.46Q33.37 13.2 33.57 12.86Q33.86 12.35 33.86 11.68Q33.86 11.04 33.59 10.56Q33.53 10.45 33.45 10.35Q33.35 10.21 33.22 10.09Q32.86 9.75 32.32 9.6Q32.66 9.47 32.92 9.24Q33.11 9.08 33.26 8.86Q33.34 8.74 33.4 8.62Q33.61 8.19 33.61 7.66Q33.61 6.97 33.3 6.48Q33.14 6.22 32.88 6.01Q32.15 5.41 30.83 5.41Q30.28 5.41 29.76 5.53Q29.5 5.59 29.25 5.68Q28.5 5.94 28 6.42L28.5 7.58Q29.02 7.1 29.64 6.88Q30.14 6.71 30.7 6.71Q31.39 6.71 31.76 7Q31.86 7.08 31.93 7.18Q32.12 7.44 32.12 7.84Q32.12 8.23 31.94 8.51Q31.86 8.65 31.73 8.76Q31.33 9.09 30.66 9.09L29.45 9.09L29.45 10.36L30.8 10.36Q31.57 10.36 31.97 10.66Q32.09 10.74 32.17 10.85Q32.37 11.12 32.37 11.55Q32.37 12.03 32.14 12.33Q31.76 12.82 30.75 12.82Q30.21 12.82 29.71 12.68Q28.99 12.48 28.36 11.98L27.85 13.15Q28.37 13.6 29.15 13.86Q29.25 13.89 29.35 13.92ZM36.75 13.65Q37.47 14.12 38.48 14.12Q39.27 14.12 39.88 13.78Q39.91 13.77 39.94 13.75Q40.24 13.57 40.48 13.34Q40.74 13.08 40.93 12.74Q40.95 12.69 40.98 12.63Q41.28 12.03 41.28 11.28Q41.28 10.49 40.95 9.88Q40.74 9.47 40.42 9.19Q40.26 9.04 40.06 8.92Q39.96 8.86 39.85 8.8Q39.37 8.57 38.77 8.57Q38.23 8.57 37.79 8.77Q37.62 8.85 37.47 8.94Q37.26 9.09 37.09 9.27Q36.82 9.57 36.66 9.98L36.66 9.63Q36.66 8.17 37.21 7.44Q37.4 7.19 37.65 7.03Q38.12 6.71 38.81 6.71Q38.97 6.71 39.13 6.73Q39.49 6.77 39.84 6.91Q40.34 7.11 40.79 7.51L41.29 6.36Q41.26 6.33 41.22 6.3Q40.78 5.89 40.16 5.66Q39.59 5.45 39 5.42Q38.92 5.41 38.83 5.41Q37.72 5.41 36.92 5.91Q36.5 6.18 36.16 6.59Q35.2 7.77 35.2 9.91Q35.2 11.91 36.05 13.01Q36.36 13.4 36.75 13.65ZM43.95 13.65Q44.67 14.12 45.68 14.12Q46.47 14.12 47.08 13.78Q47.11 13.77 47.14 13.75Q47.44 13.57 47.68 13.34Q47.94 13.08 48.13 12.74Q48.15 12.69 48.18 12.63Q48.48 12.03 48.48 11.28Q48.48 10.49 48.15 9.88Q47.94 9.47 47.62 9.19Q47.46 9.04 47.26 8.92Q47.16 8.86 47.05 8.8Q46.57 8.57 45.97 8.57Q45.43 8.57 44.99 8.77Q44.82 8.85 44.67 8.94Q44.46 9.09 44.29 9.27Q44.02 9.57 43.86 9.98L43.86 9.63Q43.86 8.17 44.41 7.44Q44.6 7.19 44.85 7.03Q45.32 6.71 46.01 6.71Q46.17 6.71 46.33 6.73Q46.69 6.77 47.04 6.91Q47.54 7.11 47.99 7.51L48.49 6.36Q48.46 6.33 48.42 6.3Q47.98 5.89 47.36 5.66Q46.79 5.45 46.2 5.42Q46.12 5.41 46.03 5.41Q44.92 5.41 44.12 5.91Q43.7 6.18 43.36 6.59Q42.4 7.77 42.4 9.91Q42.4 11.91 43.25 13.01Q43.56 13.4 43.95 13.65ZM21.38 12.39L21.38 14L22.92 14L22.92 12.39L24.11 12.39L24.11 11.12L22.92 11.12L22.92 5.53L21.65 5.53L17.7 11.26L17.7 12.39L21.38 12.39ZM53.16 12.39L53.16 14L54.7 14L54.7 12.39L55.88 12.39L55.88 11.12L54.7 11.12L54.7 5.53L53.42 5.53L49.47 11.26L49.47 12.39L53.16 12.39ZM64 6.82L60.18 14L61.87 14L65.7 6.69L65.7 5.53L59.81 5.53L59.81 6.82L64 6.82ZM71.2 6.82L67.38 14L69.07 14L72.9 6.69L72.9 5.53L67.01 5.53L67.01 6.82L71.2 6.82ZM21.38 7.89L21.38 11.12L19.18 11.12L21.38 7.89ZM53.16 7.89L53.16 11.12L50.95 11.12L53.16 7.89ZM14.57 12.7Q14.25 12.89 13.82 12.89Q13.39 12.89 13.07 12.7Q12.91 12.61 12.77 12.47Q12.69 12.38 12.63 12.28Q12.37 11.9 12.37 11.34Q12.37 10.79 12.63 10.4Q12.69 10.3 12.77 10.22Q12.91 10.06 13.09 9.96Q13.4 9.78 13.82 9.78Q14.24 9.78 14.55 9.96Q14.73 10.06 14.87 10.22Q14.95 10.3 15.02 10.4Q15.27 10.79 15.27 11.34Q15.27 11.9 15.02 12.28Q14.95 12.38 14.87 12.47Q14.74 12.61 14.57 12.7ZM39.15 12.7Q38.83 12.89 38.4 12.89Q37.97 12.89 37.64 12.7Q37.48 12.61 37.35 12.47Q37.27 12.38 37.2 12.28Q36.95 11.9 36.95 11.34Q36.95 10.79 37.2 10.4Q37.27 10.3 37.35 10.22Q37.49 10.06 37.66 9.96Q37.98 9.78 38.4 9.78Q38.82 9.78 39.13 9.96Q39.3 10.06 39.45 10.22Q39.53 10.3 39.59 10.4Q39.85 10.79 39.85 11.34Q39.85 11.9 39.6 12.28Q39.53 12.38 39.45 12.47Q39.31 12.61 39.15 12.7ZM46.35 12.7Q46.03 12.89 45.6 12.89Q45.17 12.89 44.84 12.7Q44.68 12.61 44.55 12.47Q44.47 12.38 44.4 12.28Q44.15 11.9 44.15 11.34Q44.15 10.79 44.4 10.4Q44.47 10.3 44.55 10.22Q44.69 10.06 44.86 9.96Q45.18 9.78 45.6 9.78Q46.02 9.78 46.33 9.96Q46.5 10.06 46.65 10.22Q46.73 10.3 46.79 10.4Q47.05 10.79 47.05 11.34Q47.05 11.9 46.8 12.28Q46.73 12.38 46.65 12.47Q46.51 12.61 46.35 12.7ZM25.16 15.11L25.77 15.59Q26.3 15.06 26.51 14.55Q26.72 14.04 26.72 13.43L26.72 12.33L25.04 12.33L25.04 14L25.82 14Q25.76 14.27 25.61 14.54Q25.46 14.81 25.16 15.11ZM56.82 12.33L56.82 14L58.5 14L58.5 12.33L56.82 12.33Z" fill="#FFFFFF" fill-opacity="1.000000" fill-rule="evenodd"/>
</svg>
