<svg width="1074.000000" height="278.771484" viewBox="0 0 1074 278.771" fill="none" xmlns="http://www.w3.org/2000/svg" xmlns:xlink="http://www.w3.org/1999/xlink">
	<desc>
			Created with Pixso.
	</desc>
	<defs/>
	<path id="40k" d="M681.5 277.48Q682.13 277.88 683 277.88Q683.87 277.88 684.5 277.48Q684.93 277.21 685.25 276.75Q686.02 275.63 686.02 273.52Q686.02 271.39 685.26 270.3Q684.97 269.88 684.57 269.62Q683.92 269.2 683 269.2Q682.1 269.2 681.46 269.61Q681.05 269.87 680.75 270.3Q679.98 271.39 679.98 273.53Q679.98 275.63 680.75 276.75Q681.07 277.21 681.5 277.48ZM676.57 276.05L676.57 277.77L677.8 277.77L677.8 276.05L679.04 276.05L679.04 275.01L677.8 275.01L677.8 269.31L676.78 269.31L672.76 275.13L672.76 276.05L676.57 276.05ZM687.45 269.31L687.45 277.77L688.66 277.77L688.66 275.09L688.69 275.09L691.44 277.77L692.95 277.77L689.92 274.73L692.73 271.91L691.23 271.91L688.69 274.47L688.66 274.47L688.66 269.31L687.45 269.31ZM683.79 276.65Q683.45 276.84 683 276.84Q682.55 276.84 682.22 276.65Q681.87 276.45 681.64 276.04Q681.2 275.24 681.2 273.52Q681.2 271.81 681.64 271.02Q681.86 270.63 682.2 270.43Q682.54 270.23 683 270.23Q683.49 270.23 683.84 270.45Q684.15 270.64 684.36 271.02Q684.8 271.8 684.8 273.52Q684.8 275.24 684.35 276.04Q684.13 276.45 683.79 276.65ZM676.57 271.25L676.57 275.01L674 275.01L676.57 271.25Z" fill="#2B3034" fill-opacity="0.400000" fill-rule="evenodd"/>
	<path id="45k" d="M762.57 276.05L762.57 277.77L763.8 277.77L763.8 276.05L765.04 276.05L765.04 275.01L763.8 275.01L763.8 269.31L762.78 269.31L758.76 275.13L758.76 276.05L762.57 276.05ZM768.09 277.76Q768.6 277.88 769.13 277.88Q770.04 277.88 770.7 277.53Q771.13 277.3 771.44 276.96Q771.6 276.78 771.72 276.56Q771.74 276.53 771.76 276.5Q772.08 275.9 772.08 275.13Q772.08 274.32 771.76 273.72Q771.58 273.39 771.33 273.14Q771.12 272.93 770.85 272.77Q770.26 272.44 769.45 272.44Q768.65 272.44 768.07 272.79Q767.9 272.9 767.75 273.03L767.75 270.35L771.58 270.35L771.58 269.31L766.54 269.31L766.54 274.39L767.4 274.39Q767.76 273.91 768.23 273.68Q768.66 273.47 769.19 273.47Q769.82 273.47 770.22 273.77Q770.33 273.85 770.43 273.95Q770.53 274.07 770.61 274.19Q770.87 274.61 770.87 275.19Q770.87 275.69 770.65 276.06Q770.55 276.23 770.4 276.37Q770.36 276.42 770.3 276.46Q769.85 276.82 769.11 276.82Q768.71 276.82 768.34 276.74Q767.47 276.55 766.71 275.93L766.29 276.89Q766.79 277.36 767.55 277.62Q767.82 277.71 768.09 277.76ZM773.45 269.31L773.45 277.77L774.66 277.77L774.66 275.09L774.69 275.09L777.44 277.77L778.95 277.77L775.92 274.73L778.73 271.91L777.23 271.91L774.69 274.47L774.66 274.47L774.66 269.31L773.45 269.31ZM762.57 271.25L762.57 275.01L760 275.01L762.57 271.25Z" fill="#2B3034" fill-opacity="0.400000" fill-rule="evenodd"/>
	<path id="50k" d="M853.5 277.48Q854.13 277.88 855 277.88Q855.87 277.88 856.5 277.48Q856.93 277.21 857.25 276.75Q858.02 275.63 858.02 273.52Q858.02 271.39 857.26 270.3Q856.97 269.88 856.57 269.62Q855.92 269.2 855 269.2Q854.1 269.2 853.46 269.61Q853.05 269.87 852.75 270.3Q851.98 271.39 851.98 273.53Q851.98 275.63 852.75 276.75Q853.07 277.21 853.5 277.48ZM846.89 277.76Q847.4 277.88 847.93 277.88Q848.84 277.88 849.5 277.53Q849.93 277.3 850.24 276.96Q850.4 276.78 850.52 276.56Q850.54 276.53 850.56 276.5Q850.88 275.9 850.88 275.13Q850.88 274.32 850.56 273.72Q850.38 273.39 850.13 273.14Q849.92 272.93 849.65 272.77Q849.06 272.44 848.25 272.44Q847.45 272.44 846.87 272.79Q846.7 272.9 846.55 273.03L846.55 270.35L850.38 270.35L850.38 269.31L845.34 269.31L845.34 274.39L846.2 274.39Q846.56 273.91 847.03 273.68Q847.46 273.47 847.99 273.47Q848.62 273.47 849.02 273.77Q849.13 273.85 849.23 273.95Q849.33 274.07 849.41 274.19Q849.67 274.61 849.67 275.19Q849.67 275.69 849.45 276.06Q849.35 276.23 849.2 276.37Q849.16 276.42 849.1 276.46Q848.65 276.82 847.91 276.82Q847.51 276.82 847.14 276.74Q846.27 276.55 845.51 275.93L845.09 276.89Q845.59 277.36 846.35 277.62Q846.62 277.71 846.89 277.76ZM859.45 269.31L859.45 277.77L860.66 277.77L860.66 275.09L860.69 275.09L863.44 277.77L864.95 277.77L861.92 274.73L864.73 271.91L863.23 271.91L860.69 274.47L860.66 274.47L860.66 269.31L859.45 269.31ZM855.79 276.65Q855.45 276.84 855 276.84Q854.55 276.84 854.22 276.65Q853.87 276.45 853.64 276.04Q853.2 275.24 853.2 273.52Q853.2 271.81 853.64 271.02Q853.86 270.63 854.2 270.43Q854.54 270.23 855 270.23Q855.49 270.23 855.84 270.45Q856.15 270.64 856.36 271.02Q856.8 271.8 856.8 273.52Q856.8 275.24 856.35 276.04Q856.13 276.45 855.79 276.65Z" fill="#2B3034" fill-opacity="0.400000" fill-rule="evenodd"/>
	<path id="55k" d="M932.89 277.76Q933.4 277.88 933.93 277.88Q934.84 277.88 935.5 277.53Q935.93 277.3 936.24 276.96Q936.4 276.78 936.52 276.56Q936.54 276.53 936.56 276.5Q936.88 275.9 936.88 275.13Q936.88 274.32 936.56 273.72Q936.38 273.39 936.13 273.14Q935.92 272.93 935.65 272.77Q935.06 272.44 934.25 272.44Q933.45 272.44 932.87 272.79Q932.7 272.9 932.55 273.03L932.55 270.35L936.38 270.35L936.38 269.31L931.34 269.31L931.34 274.39L932.2 274.39Q932.56 273.91 933.03 273.68Q933.46 273.47 933.99 273.47Q934.62 273.47 935.02 273.77Q935.13 273.85 935.23 273.95Q935.33 274.07 935.41 274.19Q935.67 274.61 935.67 275.19Q935.67 275.69 935.45 276.06Q935.35 276.23 935.2 276.37Q935.16 276.42 935.1 276.46Q934.65 276.82 933.91 276.82Q933.51 276.82 933.14 276.74Q932.27 276.55 931.51 275.93L931.09 276.89Q931.59 277.36 932.35 277.62Q932.62 277.71 932.89 277.76ZM940.09 277.76Q940.6 277.88 941.13 277.88Q942.04 277.88 942.7 277.53Q943.13 277.3 943.44 276.96Q943.6 276.78 943.72 276.56Q943.74 276.53 943.76 276.5Q944.08 275.9 944.08 275.13Q944.08 274.32 943.76 273.72Q943.58 273.39 943.33 273.14Q943.12 272.93 942.85 272.77Q942.26 272.44 941.45 272.44Q940.65 272.44 940.07 272.79Q939.9 272.9 939.75 273.03L939.75 270.35L943.58 270.35L943.58 269.31L938.54 269.31L938.54 274.39L939.4 274.39Q939.76 273.91 940.23 273.68Q940.66 273.47 941.19 273.47Q941.82 273.47 942.22 273.77Q942.33 273.85 942.43 273.95Q942.53 274.07 942.61 274.19Q942.87 274.61 942.87 275.19Q942.87 275.69 942.65 276.06Q942.55 276.23 942.4 276.37Q942.36 276.42 942.3 276.46Q941.85 276.82 941.11 276.82Q940.71 276.82 940.34 276.74Q939.47 276.55 938.71 275.93L938.29 276.89Q938.79 277.36 939.55 277.62Q939.82 277.71 940.09 277.76ZM945.45 269.31L945.45 277.77L946.66 277.77L946.66 275.09L946.69 275.09L949.44 277.77L950.95 277.77L947.92 274.73L950.73 271.91L949.23 271.91L946.69 274.47L946.66 274.47L946.66 269.31L945.45 269.31Z" fill="#2B3034" fill-opacity="0.400000" fill-rule="evenodd"/>
	<path id="60k" d="M1018.43 277.43Q1019.12 277.88 1020.1 277.88Q1020.86 277.88 1021.45 277.56Q1021.49 277.54 1021.53 277.52Q1021.82 277.35 1022.05 277.13Q1022.31 276.87 1022.49 276.54Q1022.5 276.51 1022.51 276.49Q1022.84 275.88 1022.84 275.09Q1022.84 274.31 1022.51 273.71Q1022.32 273.35 1022.05 273.08Q1021.85 272.89 1021.62 272.75Q1021.54 272.7 1021.46 272.66Q1020.95 272.4 1020.31 272.4Q1019.77 272.4 1019.32 272.6Q1019.12 272.69 1018.93 272.82Q1018.73 272.96 1018.56 273.14Q1018.26 273.49 1018.1 273.96L1018.1 273.48Q1018.1 271.88 1018.69 271.07Q1018.92 270.76 1019.21 270.57Q1019.71 270.26 1020.41 270.26Q1020.44 270.26 1020.47 270.26Q1020.97 270.27 1021.45 270.47Q1021.98 270.69 1022.41 271.12L1022.84 270.18Q1022.4 269.72 1021.74 269.46Q1021.08 269.2 1020.43 269.2Q1019.39 269.2 1018.64 269.66Q1018.19 269.93 1017.84 270.38Q1016.9 271.55 1016.9 273.72Q1016.9 275.69 1017.73 276.78Q1018.04 277.18 1018.43 277.43ZM1025.5 277.48Q1026.13 277.88 1027 277.88Q1027.88 277.88 1028.51 277.48Q1028.93 277.21 1029.25 276.75Q1030.03 275.63 1030.03 273.52Q1030.03 271.39 1029.26 270.3Q1028.97 269.88 1028.57 269.62Q1027.93 269.2 1027 269.2Q1026.1 269.2 1025.46 269.61Q1025.06 269.87 1024.75 270.3Q1023.98 271.39 1023.98 273.53Q1023.98 275.63 1024.75 276.75Q1025.06 277.21 1025.5 277.48ZM1031.46 269.31L1031.46 277.77L1032.67 277.77L1032.67 275.09L1032.68 275.09L1035.43 277.77L1036.94 277.77L1033.93 274.73L1036.74 271.91L1035.24 271.91L1032.68 274.47L1032.67 274.47L1032.67 269.31L1031.46 269.31ZM1027.79 276.65Q1027.44 276.84 1027 276.84Q1026.56 276.84 1026.22 276.65Q1025.87 276.45 1025.65 276.04Q1025.19 275.24 1025.19 273.52Q1025.19 271.81 1025.65 271.02Q1025.87 270.63 1026.19 270.43Q1026.55 270.23 1027 270.23Q1027.49 270.23 1027.84 270.45Q1028.16 270.64 1028.36 271.02Q1028.8 271.8 1028.8 273.52Q1028.8 275.24 1028.36 276.04Q1028.13 276.45 1027.79 276.65ZM1020.87 276.66Q1020.51 276.87 1020.03 276.87Q1019.55 276.87 1019.19 276.66Q1019 276.55 1018.84 276.39Q1018.73 276.27 1018.65 276.14Q1018.39 275.72 1018.39 275.14Q1018.39 274.56 1018.65 274.14Q1018.73 274.01 1018.84 273.89Q1019 273.73 1019.19 273.62Q1019.55 273.41 1020.03 273.41Q1020.51 273.41 1020.87 273.61Q1021.06 273.72 1021.22 273.89Q1021.33 274.01 1021.42 274.14Q1021.68 274.56 1021.68 275.14Q1021.68 275.72 1021.42 276.14Q1021.33 276.27 1021.22 276.39Q1021.06 276.55 1020.87 276.66Z" fill="#2B3034" fill-opacity="0.400000" fill-rule="evenodd"/>
	<path id="5k" d="M78.99 277.76Q79.5 277.88 80.03 277.88Q80.94 277.88 81.6 277.53Q82.03 277.3 82.33 276.96Q82.5 276.78 82.62 276.56Q82.64 276.53 82.66 276.5Q82.98 275.9 82.98 275.13Q82.98 274.32 82.66 273.72Q82.48 273.39 82.23 273.14Q82.02 272.93 81.75 272.77Q81.16 272.44 80.35 272.44Q79.55 272.44 78.96 272.79Q78.8 272.9 78.65 273.03L78.65 270.35L82.48 270.35L82.48 269.31L77.44 269.31L77.44 274.39L78.3 274.39Q78.66 273.91 79.13 273.68Q79.56 273.47 80.09 273.47Q80.72 273.47 81.12 273.77Q81.23 273.85 81.33 273.95Q81.43 274.07 81.51 274.19Q81.77 274.61 81.77 275.19Q81.77 275.69 81.55 276.06Q81.45 276.23 81.3 276.37Q81.26 276.42 81.2 276.46Q80.75 276.82 80.01 276.82Q79.61 276.82 79.24 276.74Q78.37 276.55 77.61 275.93L77.19 276.89Q77.69 277.36 78.45 277.62Q78.72 277.71 78.99 277.76ZM84.35 269.31L84.35 277.77L85.56 277.77L85.56 275.09L85.59 275.09L88.34 277.77L89.85 277.77L86.82 274.73L89.63 271.91L88.13 271.91L85.59 274.47L85.56 274.47L85.56 269.31L84.35 269.31Z" fill="#2B3034" fill-opacity="0.400000" fill-rule="evenodd"/>
	<path id="10k" d="M165 277.48Q165.63 277.88 166.5 277.88Q167.37 277.88 168 277.48Q168.43 277.21 168.75 276.75Q169.52 275.63 169.52 273.52Q169.52 271.39 168.76 270.3Q168.47 269.88 168.07 269.62Q167.42 269.2 166.5 269.2Q165.6 269.2 164.96 269.61Q164.55 269.87 164.25 270.3Q163.48 271.39 163.48 273.53Q163.48 275.63 164.25 276.75Q164.57 277.21 165 277.48ZM157.1 276.72L157.1 277.77L162.06 277.77L162.06 276.72L160.26 276.72L160.26 269.31L159.38 269.31L157.02 270.76L157.52 271.68L159.02 270.75L159.02 276.72L157.1 276.72ZM170.95 269.31L170.95 277.77L172.16 277.77L172.16 275.09L172.19 275.09L174.94 277.77L176.45 277.77L173.42 274.73L176.23 271.91L174.73 271.91L172.19 274.47L172.16 274.47L172.16 269.31L170.95 269.31ZM167.29 276.65Q166.95 276.84 166.5 276.84Q166.05 276.84 165.72 276.65Q165.37 276.45 165.14 276.04Q164.7 275.24 164.7 273.52Q164.7 271.81 165.14 271.02Q165.36 270.63 165.7 270.43Q166.04 270.23 166.5 270.23Q166.99 270.23 167.34 270.45Q167.65 270.64 167.86 271.02Q168.3 271.8 168.3 273.52Q168.3 275.24 167.85 276.04Q167.63 276.45 167.29 276.65Z" fill="#2B3034" fill-opacity="0.400000" fill-rule="evenodd"/>
	<path id="15k" d="M243.1 276.72L243.1 277.77L248.06 277.77L248.06 276.72L246.26 276.72L246.26 269.31L245.38 269.31L243.02 270.76L243.52 271.68L245.02 270.75L245.02 276.72L243.1 276.72ZM251.59 277.76Q252.1 277.88 252.63 277.88Q253.54 277.88 254.2 277.53Q254.63 277.3 254.94 276.96Q255.1 276.78 255.22 276.56Q255.24 276.53 255.26 276.5Q255.58 275.9 255.58 275.13Q255.58 274.32 255.26 273.72Q255.08 273.39 254.83 273.14Q254.62 272.93 254.35 272.77Q253.76 272.44 252.95 272.44Q252.15 272.44 251.57 272.79Q251.4 272.9 251.25 273.03L251.25 270.35L255.08 270.35L255.08 269.31L250.04 269.31L250.04 274.39L250.9 274.39Q251.26 273.91 251.73 273.68Q252.16 273.47 252.69 273.47Q253.32 273.47 253.72 273.77Q253.83 273.85 253.93 273.95Q254.03 274.07 254.11 274.19Q254.37 274.61 254.37 275.19Q254.37 275.69 254.15 276.06Q254.05 276.23 253.9 276.37Q253.86 276.42 253.8 276.46Q253.35 276.82 252.61 276.82Q252.21 276.82 251.84 276.74Q250.97 276.55 250.21 275.93L249.79 276.89Q250.29 277.36 251.05 277.62Q251.32 277.71 251.59 277.76ZM256.95 269.31L256.95 277.77L258.16 277.77L258.16 275.09L258.19 275.09L260.94 277.77L262.45 277.77L259.42 274.73L262.23 271.91L260.73 271.91L258.19 274.47L258.16 274.47L258.16 269.31L256.95 269.31Z" fill="#2B3034" fill-opacity="0.400000" fill-rule="evenodd"/>
	<path id="20k" d="M328.72 276.84L328.72 277.77L334.22 277.77L334.22 276.72L330.28 276.72L332.37 274.53Q333.15 273.71 333.51 272.99Q333.81 272.41 333.86 271.81Q333.88 271.66 333.88 271.51Q333.88 270.67 333.48 270.12Q333.35 269.94 333.18 269.8Q332.47 269.2 331.17 269.2Q330.7 269.2 330.24 269.29Q329.93 269.36 329.62 269.48Q328.87 269.76 328.4 270.23L328.84 271.18Q329.48 270.57 330.24 270.36Q330.62 270.26 331.04 270.26Q331.97 270.26 332.36 270.72Q332.64 271.05 332.64 271.62Q332.64 271.67 332.64 271.72Q332.62 272.2 332.38 272.67Q332.13 273.18 331.54 273.82L328.72 276.84ZM337 277.48Q337.63 277.88 338.5 277.88Q339.37 277.88 340 277.48Q340.43 277.21 340.75 276.75Q341.52 275.63 341.52 273.52Q341.52 271.39 340.76 270.3Q340.47 269.88 340.07 269.62Q339.42 269.2 338.5 269.2Q337.6 269.2 336.96 269.61Q336.55 269.87 336.25 270.3Q335.48 271.39 335.48 273.53Q335.48 275.63 336.25 276.75Q336.57 277.21 337 277.48ZM342.95 269.31L342.95 277.77L344.16 277.77L344.16 275.09L344.19 275.09L346.94 277.77L348.45 277.77L345.42 274.73L348.23 271.91L346.73 271.91L344.19 274.47L344.16 274.47L344.16 269.31L342.95 269.31ZM339.29 276.65Q338.95 276.84 338.5 276.84Q338.05 276.84 337.72 276.65Q337.37 276.45 337.14 276.04Q336.7 275.24 336.7 273.52Q336.7 271.81 337.14 271.02Q337.36 270.63 337.7 270.43Q338.04 270.23 338.5 270.23Q338.99 270.23 339.34 270.45Q339.65 270.64 339.86 271.02Q340.3 271.8 340.3 273.52Q340.3 275.24 339.85 276.04Q339.63 276.45 339.29 276.65Z" fill="#2B3034" fill-opacity="0.400000" fill-rule="evenodd"/>
	<path id="25k" d="M414.72 276.84L414.72 277.77L420.22 277.77L420.22 276.72L416.28 276.72L418.37 274.53Q419.15 273.71 419.51 272.99Q419.81 272.41 419.86 271.81Q419.88 271.66 419.88 271.51Q419.88 270.67 419.48 270.12Q419.35 269.94 419.18 269.8Q418.47 269.2 417.17 269.2Q416.7 269.2 416.24 269.29Q415.93 269.36 415.62 269.48Q414.87 269.76 414.4 270.23L414.84 271.18Q415.48 270.57 416.24 270.36Q416.62 270.26 417.04 270.26Q417.97 270.26 418.36 270.72Q418.64 271.05 418.64 271.62Q418.64 271.67 418.64 271.72Q418.62 272.2 418.38 272.67Q418.13 273.18 417.54 273.82L414.72 276.84ZM423.59 277.76Q424.1 277.88 424.63 277.88Q425.54 277.88 426.2 277.53Q426.63 277.3 426.94 276.96Q427.1 276.78 427.22 276.56Q427.24 276.53 427.26 276.5Q427.58 275.9 427.58 275.13Q427.58 274.32 427.26 273.72Q427.08 273.39 426.83 273.14Q426.62 272.93 426.35 272.77Q425.76 272.44 424.95 272.44Q424.15 272.44 423.57 272.79Q423.4 272.9 423.25 273.03L423.25 270.35L427.08 270.35L427.08 269.31L422.04 269.31L422.04 274.39L422.9 274.39Q423.26 273.91 423.73 273.68Q424.16 273.47 424.69 273.47Q425.32 273.47 425.72 273.77Q425.83 273.85 425.93 273.95Q426.03 274.07 426.11 274.19Q426.37 274.61 426.37 275.19Q426.37 275.69 426.15 276.06Q426.05 276.23 425.9 276.37Q425.86 276.42 425.8 276.46Q425.35 276.82 424.61 276.82Q424.21 276.82 423.84 276.74Q422.97 276.55 422.21 275.93L421.79 276.89Q422.29 277.36 423.05 277.62Q423.32 277.71 423.59 277.76ZM428.95 269.31L428.95 277.77L430.16 277.77L430.16 275.09L430.19 275.09L432.94 277.77L434.45 277.77L431.42 274.73L434.23 271.91L432.73 271.91L430.19 274.47L430.16 274.47L430.16 269.31L428.95 269.31Z" fill="#2B3034" fill-opacity="0.400000" fill-rule="evenodd"/>
	<path id="35k" d="M588.07 277.63Q588.83 277.88 589.67 277.88Q591.04 277.88 591.82 277.23Q592.12 276.98 592.3 276.67Q592.61 276.15 592.61 275.46Q592.61 274.78 592.3 274.27Q592.25 274.2 592.2 274.13Q592.11 274.01 592.01 273.91Q591.63 273.54 591.04 273.39Q591.44 273.23 591.73 272.96Q591.89 272.81 592.01 272.62Q592.09 272.5 592.16 272.36Q592.37 271.93 592.37 271.39Q592.37 270.72 592.06 270.23Q591.9 269.98 591.66 269.78Q590.95 269.2 589.68 269.2Q589.12 269.2 588.6 269.33Q588.37 269.39 588.14 269.47Q587.4 269.74 586.91 270.23L587.34 271.18Q587.88 270.65 588.53 270.43Q589.03 270.26 589.58 270.26Q590.34 270.26 590.75 270.59Q590.87 270.69 590.96 270.81Q591.16 271.1 591.16 271.53Q591.16 271.99 590.94 272.32Q590.85 272.47 590.72 272.58Q590.7 272.6 590.69 272.61Q590.26 272.97 589.52 272.97L588.34 272.97L588.34 274.01L589.64 274.01Q590.49 274.01 590.95 274.35Q591.06 274.43 591.14 274.53Q591.4 274.85 591.4 275.38Q591.4 275.88 591.16 276.22Q591.07 276.34 590.95 276.45Q590.49 276.82 589.63 276.82Q589.01 276.82 588.44 276.63Q588.4 276.62 588.36 276.6Q587.76 276.39 587.2 275.93L586.76 276.89Q587.28 277.36 588.05 277.62Q588.06 277.62 588.07 277.63ZM596.09 277.76Q596.6 277.88 597.13 277.88Q598.04 277.88 598.7 277.53Q599.13 277.3 599.44 276.96Q599.6 276.78 599.72 276.56Q599.74 276.53 599.76 276.5Q600.08 275.9 600.08 275.13Q600.08 274.32 599.76 273.72Q599.58 273.39 599.33 273.14Q599.12 272.93 598.84 272.77Q598.26 272.44 597.45 272.44Q596.65 272.44 596.07 272.79Q595.9 272.9 595.75 273.03L595.75 270.35L599.58 270.35L599.58 269.31L594.54 269.31L594.54 274.39L595.4 274.39Q595.76 273.91 596.23 273.68Q596.66 273.47 597.19 273.47Q597.82 273.47 598.22 273.77Q598.33 273.85 598.43 273.95Q598.53 274.07 598.61 274.19Q598.87 274.61 598.87 275.19Q598.87 275.69 598.65 276.06Q598.55 276.23 598.4 276.37Q598.36 276.42 598.3 276.46Q597.85 276.82 597.11 276.82Q596.71 276.82 596.34 276.74Q595.47 276.55 594.71 275.93L594.29 276.89Q594.79 277.36 595.55 277.62Q595.82 277.71 596.09 277.76ZM601.45 269.31L601.45 277.77L602.66 277.77L602.66 275.09L602.69 275.09L605.44 277.77L606.95 277.77L603.92 274.73L606.73 271.91L605.23 271.91L602.69 274.47L602.66 274.47L602.66 269.31L601.45 269.31Z" fill="#2B3034" fill-opacity="0.400000" fill-rule="evenodd"/>
	<path id="30k" d="M501.57 277.63Q502.33 277.88 503.17 277.88Q504.54 277.88 505.32 277.23Q505.62 276.98 505.8 276.67Q506.11 276.15 506.11 275.46Q506.11 274.78 505.8 274.27Q505.75 274.2 505.7 274.13Q505.61 274.01 505.51 273.91Q505.13 273.54 504.54 273.39Q504.94 273.23 505.23 272.96Q505.39 272.81 505.51 272.62Q505.59 272.5 505.66 272.36Q505.87 271.93 505.87 271.39Q505.87 270.72 505.56 270.23Q505.4 269.98 505.16 269.78Q504.45 269.2 503.18 269.2Q502.62 269.2 502.1 269.33Q501.87 269.39 501.64 269.47Q500.9 269.74 500.41 270.23L500.84 271.18Q501.38 270.65 502.03 270.43Q502.53 270.26 503.08 270.26Q503.84 270.26 504.25 270.59Q504.37 270.69 504.46 270.81Q504.66 271.1 504.66 271.53Q504.66 271.99 504.44 272.32Q504.35 272.47 504.22 272.58Q504.2 272.6 504.19 272.61Q503.76 272.97 503.02 272.97L501.84 272.97L501.84 274.01L503.14 274.01Q503.99 274.01 504.45 274.35Q504.56 274.43 504.64 274.53Q504.9 274.85 504.9 275.38Q504.9 275.88 504.66 276.22Q504.57 276.34 504.45 276.45Q503.99 276.82 503.13 276.82Q502.51 276.82 501.94 276.63Q501.9 276.62 501.86 276.6Q501.26 276.39 500.7 275.93L500.26 276.89Q500.78 277.36 501.55 277.62Q501.56 277.62 501.57 277.63ZM509 277.48Q509.63 277.88 510.5 277.88Q511.37 277.88 512 277.48Q512.43 277.21 512.75 276.75Q513.52 275.63 513.52 273.52Q513.52 271.39 512.76 270.3Q512.46 269.88 512.07 269.62Q511.42 269.2 510.5 269.2Q509.6 269.2 508.96 269.61Q508.55 269.87 508.25 270.3Q507.48 271.39 507.48 273.53Q507.48 275.63 508.25 276.75Q508.57 277.21 509 277.48ZM514.95 269.31L514.95 277.77L516.16 277.77L516.16 275.09L516.19 275.09L518.94 277.77L520.45 277.77L517.42 274.73L520.23 271.91L518.73 271.91L516.19 274.47L516.16 274.47L516.16 269.31L514.95 269.31ZM511.29 276.65Q510.95 276.84 510.5 276.84Q510.05 276.84 509.72 276.65Q509.37 276.45 509.14 276.04Q508.7 275.24 508.7 273.52Q508.7 271.81 509.14 271.02Q509.36 270.63 509.7 270.43Q510.04 270.23 510.5 270.23Q510.99 270.23 511.34 270.45Q511.65 270.64 511.86 271.02Q512.3 271.8 512.3 273.52Q512.3 275.24 511.85 276.04Q511.63 276.45 511.29 276.65Z" fill="#2B3034" fill-opacity="0.400000" fill-rule="evenodd"/>
	<path id="20%" d="M17.13 244.6L17.95 245.08L22.9 236.48L22.09 236L17.13 244.6ZM1.01 243.84L1.01 244.77L6.51 244.77L6.51 243.72L2.58 243.72L4.66 241.53Q5.44 240.71 5.81 239.99Q6.1 239.41 6.16 238.81Q6.17 238.66 6.17 238.52Q6.17 237.67 5.77 237.12Q5.64 236.94 5.47 236.8Q4.77 236.2 3.46 236.2Q2.99 236.2 2.54 236.3Q2.22 236.36 1.91 236.48Q1.17 236.76 0.69 237.23L1.13 238.18Q1.78 237.57 2.53 237.36Q2.92 237.26 3.33 237.26Q4.27 237.26 4.66 237.72Q4.94 238.05 4.94 238.62Q4.94 238.67 4.94 238.72Q4.92 239.2 4.68 239.67Q4.42 240.18 3.84 240.82L1.01 243.84ZM9.29 244.48Q9.92 244.88 10.8 244.88Q11.67 244.88 12.3 244.48Q12.73 244.21 13.05 243.75Q13.82 242.63 13.82 240.52Q13.82 238.39 13.05 237.3Q12.76 236.88 12.37 236.62Q11.72 236.2 10.8 236.2Q9.89 236.2 9.26 236.61Q8.85 236.87 8.55 237.3Q7.77 238.39 7.77 240.53Q7.77 242.63 8.55 243.75Q8.86 244.21 9.29 244.48ZM16 241.09Q16.45 241.37 17.08 241.37Q17.71 241.37 18.17 241.09Q18.42 240.93 18.62 240.68Q19.17 239.99 19.17 238.78Q19.17 237.57 18.61 236.88Q18.4 236.63 18.14 236.47Q17.69 236.2 17.08 236.2Q16.47 236.2 16.03 236.47Q15.76 236.63 15.55 236.88Q15 237.57 15 238.78Q15 239.99 15.55 240.68Q15.74 240.93 16 241.09ZM17.51 240.42Q17.33 240.52 17.08 240.52Q16.83 240.52 16.64 240.42Q16.44 240.31 16.3 240.09Q16.02 239.67 16.02 238.78Q16.02 237.9 16.3 237.47Q16.44 237.25 16.65 237.14Q16.84 237.04 17.08 237.04Q17.32 237.04 17.51 237.14Q17.72 237.24 17.87 237.47Q18.15 237.9 18.15 238.78Q18.15 239.65 17.87 240.09Q17.72 240.31 17.51 240.42ZM11.58 243.65Q11.25 243.84 10.8 243.84Q10.35 243.84 10.01 243.65Q9.67 243.45 9.44 243.04Q8.99 242.24 8.99 240.52Q8.99 238.81 9.44 238.02Q9.66 237.63 10 237.43Q10.34 237.23 10.8 237.23Q11.28 237.23 11.63 237.45Q11.95 237.64 12.16 238.02Q12.59 238.8 12.59 240.52Q12.59 242.24 12.15 243.04Q11.93 243.45 11.58 243.65ZM21.89 244.6Q22.34 244.88 22.95 244.88Q23.59 244.88 24.05 244.58Q24.29 244.43 24.48 244.19Q25.04 243.51 25.04 242.28Q25.04 241.08 24.48 240.39Q24.29 240.14 24.03 239.99Q23.58 239.7 22.95 239.7Q22.35 239.7 21.91 239.97Q21.64 240.13 21.43 240.39Q20.88 241.08 20.88 242.28Q20.88 243.51 21.43 244.19Q21.63 244.44 21.89 244.6ZM23.38 243.94Q23.19 244.03 22.95 244.03Q22.71 244.03 22.52 243.94Q22.31 243.83 22.16 243.6Q21.88 243.17 21.88 242.28Q21.88 241.41 22.16 240.98Q22.31 240.76 22.52 240.65Q22.71 240.55 22.95 240.55Q23.19 240.55 23.38 240.65Q23.59 240.76 23.73 240.99Q24.02 241.42 24.02 242.28Q24.02 243.17 23.73 243.6Q23.59 243.83 23.38 243.94Z" fill="#2B3034" fill-opacity="0.400000" fill-rule="evenodd"/>
	<g opacity="0.700000">
		<path id="Line" d="M76.01 241.77L75.5 241.77L75.5 240.77L76.01 240.77L76.01 241.77ZM1073.66 240.77L1073.14 240.77L1073.14 241.77L1073.66 241.77L1073.66 240.77Z" fill="#FFFFFF" fill-opacity="1.000000" fill-rule="evenodd"/>
		<path id="Line" d="M76 241.27L1073.16 241.27" stroke="#EAEAEA" stroke-opacity="1.000000" stroke-width="1.000000" stroke-linecap="square"/>
		<path id="Line" d="M76.01 182.77L75.5 182.77L75.5 181.77L76.01 181.77L76.01 182.77ZM1073.66 181.77L1073.14 181.77L1073.14 182.77L1073.66 182.77L1073.66 181.77Z" fill="#FFFFFF" fill-opacity="1.000000" fill-rule="evenodd"/>
		<path id="Line" d="M76 182.27L1073.16 182.27" stroke="#EAEAEA" stroke-opacity="1.000000" stroke-width="1.000000" stroke-linecap="square"/>
		<path id="Line" d="M76.01 123.77L75.5 123.77L75.5 122.77L76.01 122.77L76.01 123.77ZM1073.66 122.77L1073.14 122.77L1073.14 123.77L1073.66 123.77L1073.66 122.77Z" fill="#FFFFFF" fill-opacity="1.000000" fill-rule="evenodd"/>
		<path id="Line" d="M76 123.27L1073.16 123.27" stroke="#EAEAEA" stroke-opacity="1.000000" stroke-width="1.000000" stroke-linecap="square"/>
		<path id="Line" d="M76.01 64.77L75.5 64.77L75.5 63.77L76.01 63.77L76.01 64.77ZM1073.66 63.77L1073.14 63.77L1073.14 64.77L1073.66 64.77L1073.66 63.77Z" fill="#FFFFFF" fill-opacity="1.000000" fill-rule="evenodd"/>
		<path id="Line" d="M76 64.27L1073.16 64.27" stroke="#EAEAEA" stroke-opacity="1.000000" stroke-width="1.000000" stroke-linecap="square"/>
		<path id="Line" d="M76.01 5.77L75.5 5.77L75.5 4.77L76.01 4.77L76.01 5.77ZM1073.66 4.77L1073.14 4.77L1073.14 5.77L1073.66 5.77L1073.66 4.77Z" fill="#FFFFFF" fill-opacity="1.000000" fill-rule="evenodd"/>
		<path id="Line" d="M76 5.27L1073.16 5.27" stroke="#EAEAEA" stroke-opacity="1.000000" stroke-width="1.000000" stroke-linecap="square"/>
	</g>
	<path id="40%" d="M17.13 185.6L17.95 186.08L22.9 177.48L22.09 177L17.13 185.6ZM9.29 185.48Q9.92 185.88 10.8 185.88Q11.67 185.88 12.3 185.48Q12.73 185.21 13.05 184.75Q13.82 183.63 13.82 181.52Q13.82 179.39 13.05 178.3Q12.76 177.88 12.37 177.62Q11.72 177.2 10.8 177.2Q9.89 177.2 9.26 177.61Q8.85 177.87 8.55 178.3Q7.77 179.39 7.77 181.53Q7.77 183.63 8.55 184.75Q8.86 185.21 9.29 185.48ZM16 182.09Q16.45 182.37 17.08 182.37Q17.71 182.37 18.17 182.09Q18.42 181.93 18.62 181.68Q19.17 180.99 19.17 179.78Q19.17 178.57 18.61 177.88Q18.4 177.63 18.14 177.47Q17.69 177.2 17.08 177.2Q16.47 177.2 16.03 177.47Q15.76 177.63 15.55 177.88Q15 178.57 15 179.78Q15 180.99 15.55 181.68Q15.74 181.93 16 182.09ZM4.36 184.05L4.36 185.77L5.6 185.77L5.6 184.05L6.84 184.05L6.84 183.01L5.6 183.01L5.6 177.31L4.58 177.31L0.56 183.13L0.56 184.05L4.36 184.05ZM17.51 181.42Q17.33 181.52 17.08 181.52Q16.83 181.52 16.64 181.42Q16.44 181.31 16.3 181.09Q16.02 180.67 16.02 179.78Q16.02 178.9 16.3 178.47Q16.44 178.25 16.65 178.14Q16.84 178.04 17.08 178.04Q17.32 178.04 17.51 178.14Q17.72 178.24 17.87 178.47Q18.15 178.9 18.15 179.78Q18.15 180.65 17.87 181.09Q17.72 181.31 17.51 181.42ZM11.58 184.65Q11.25 184.84 10.8 184.84Q10.35 184.84 10.01 184.65Q9.67 184.45 9.44 184.04Q8.99 183.24 8.99 181.52Q8.99 179.81 9.44 179.02Q9.66 178.63 10 178.43Q10.34 178.23 10.8 178.23Q11.28 178.23 11.63 178.45Q11.95 178.64 12.16 179.02Q12.59 179.8 12.59 181.52Q12.59 183.24 12.15 184.04Q11.93 184.45 11.58 184.65ZM4.36 179.25L4.36 183.01L1.79 183.01L4.36 179.25ZM21.89 185.6Q22.34 185.88 22.95 185.88Q23.59 185.88 24.05 185.58Q24.29 185.43 24.48 185.19Q25.04 184.51 25.04 183.28Q25.04 182.08 24.48 181.39Q24.29 181.14 24.03 180.99Q23.58 180.7 22.95 180.7Q22.35 180.7 21.91 180.97Q21.64 181.13 21.43 181.39Q20.88 182.08 20.88 183.28Q20.88 184.51 21.43 185.19Q21.63 185.44 21.89 185.6ZM23.38 184.94Q23.19 185.03 22.95 185.03Q22.71 185.03 22.52 184.94Q22.31 184.83 22.16 184.6Q21.88 184.17 21.88 183.28Q21.88 182.41 22.16 181.98Q22.31 181.76 22.52 181.65Q22.71 181.55 22.95 181.55Q23.19 181.55 23.38 181.65Q23.59 181.76 23.73 181.99Q24.02 182.42 24.02 183.28Q24.02 184.17 23.73 184.6Q23.59 184.83 23.38 184.94Z" fill="#2B3034" fill-opacity="0.400000" fill-rule="evenodd"/>
	<path id="60%" d="M17.13 126.6L17.95 127.08L22.9 118.48L22.09 118L17.13 126.6ZM2.22 126.43Q2.91 126.88 3.89 126.88Q4.65 126.88 5.24 126.56Q5.28 126.54 5.32 126.52Q5.61 126.35 5.84 126.13Q6.1 125.87 6.28 125.54Q6.29 125.52 6.31 125.49Q6.63 124.88 6.63 124.09Q6.63 123.31 6.31 122.71Q6.11 122.35 5.84 122.08Q5.64 121.89 5.41 121.75Q5.33 121.7 5.25 121.66Q4.74 121.4 4.1 121.4Q3.56 121.4 3.11 121.6Q2.91 121.69 2.73 121.82Q2.52 121.96 2.36 122.14Q2.05 122.49 1.89 122.96L1.89 122.48Q1.89 120.88 2.49 120.07Q2.71 119.76 3 119.57Q3.5 119.26 4.2 119.26Q4.23 119.26 4.27 119.26Q4.76 119.27 5.25 119.47Q5.77 119.69 6.2 120.12L6.63 119.18Q6.19 118.72 5.53 118.46Q4.87 118.2 4.22 118.2Q3.19 118.2 2.43 118.66Q1.98 118.93 1.63 119.38Q0.69 120.55 0.69 122.72Q0.69 124.69 1.52 125.78Q1.83 126.18 2.22 126.43ZM9.29 126.48Q9.92 126.88 10.8 126.88Q11.67 126.88 12.3 126.48Q12.73 126.21 13.05 125.75Q13.82 124.63 13.82 122.52Q13.82 120.39 13.05 119.3Q12.76 118.88 12.37 118.62Q11.72 118.2 10.8 118.2Q9.89 118.2 9.26 118.61Q8.85 118.87 8.55 119.3Q7.77 120.39 7.77 122.53Q7.77 124.63 8.55 125.75Q8.86 126.21 9.29 126.48ZM16 123.09Q16.45 123.37 17.08 123.37Q17.71 123.37 18.17 123.09Q18.42 122.93 18.62 122.68Q19.17 121.99 19.17 120.78Q19.17 119.57 18.61 118.88Q18.4 118.63 18.14 118.47Q17.69 118.2 17.08 118.2Q16.47 118.2 16.03 118.47Q15.76 118.63 15.55 118.88Q15 119.57 15 120.78Q15 121.99 15.55 122.68Q15.74 122.93 16 123.09ZM17.51 122.42Q17.33 122.52 17.08 122.52Q16.83 122.52 16.64 122.42Q16.44 122.31 16.3 122.09Q16.02 121.67 16.02 120.78Q16.02 119.9 16.3 119.47Q16.44 119.25 16.65 119.14Q16.84 119.04 17.08 119.04Q17.32 119.04 17.51 119.14Q17.72 119.24 17.87 119.47Q18.15 119.9 18.15 120.78Q18.15 121.65 17.87 122.09Q17.72 122.31 17.51 122.42ZM11.58 125.65Q11.25 125.84 10.8 125.84Q10.35 125.84 10.01 125.65Q9.67 125.45 9.44 125.04Q8.99 124.24 8.99 122.52Q8.99 120.81 9.44 120.02Q9.66 119.63 10 119.43Q10.34 119.23 10.8 119.23Q11.28 119.23 11.63 119.45Q11.95 119.64 12.16 120.02Q12.59 120.8 12.59 122.52Q12.59 124.24 12.15 125.04Q11.93 125.45 11.58 125.65ZM21.89 126.6Q22.34 126.88 22.95 126.88Q23.59 126.88 24.05 126.58Q24.29 126.43 24.48 126.19Q25.04 125.51 25.04 124.28Q25.04 123.08 24.48 122.39Q24.29 122.14 24.03 121.99Q23.58 121.7 22.95 121.7Q22.35 121.7 21.91 121.97Q21.64 122.13 21.43 122.39Q20.88 123.08 20.88 124.28Q20.88 125.51 21.43 126.19Q21.63 126.44 21.89 126.6ZM4.66 125.66Q4.3 125.87 3.82 125.87Q3.34 125.87 2.98 125.66Q2.79 125.55 2.63 125.39Q2.52 125.27 2.44 125.14Q2.18 124.72 2.18 124.14Q2.18 123.56 2.44 123.14Q2.52 123.01 2.63 122.89Q2.79 122.73 2.98 122.62Q3.34 122.41 3.82 122.41Q4.3 122.41 4.66 122.61Q4.85 122.72 5.01 122.89Q5.12 123.01 5.21 123.14Q5.47 123.56 5.47 124.14Q5.47 124.72 5.21 125.14Q5.12 125.27 5.01 125.39Q4.85 125.55 4.66 125.66ZM23.38 125.94Q23.19 126.03 22.95 126.03Q22.71 126.03 22.52 125.94Q22.31 125.83 22.16 125.6Q21.88 125.17 21.88 124.28Q21.88 123.41 22.16 122.98Q22.31 122.76 22.52 122.65Q22.71 122.55 22.95 122.55Q23.19 122.55 23.38 122.65Q23.59 122.76 23.73 122.99Q24.02 123.42 24.02 124.28Q24.02 125.17 23.73 125.6Q23.59 125.83 23.38 125.94Z" fill="#2B3034" fill-opacity="0.400000" fill-rule="evenodd"/>
	<path id="80%" d="M17.13 67.6L17.95 68.08L22.9 59.48L22.09 59L17.13 67.6ZM1.33 67.25Q2.14 67.87 3.6 67.87Q5.05 67.87 5.85 67.25Q6.17 67.01 6.36 66.69Q6.67 66.19 6.67 65.51Q6.67 64.87 6.39 64.38Q6.33 64.28 6.26 64.19Q6.1 63.98 5.91 63.82Q5.59 63.56 5.17 63.43Q5.5 63.3 5.75 63.08Q5.96 62.9 6.12 62.67Q6.22 62.51 6.3 62.34Q6.48 61.94 6.48 61.46Q6.48 60.83 6.2 60.37Q6.01 60.04 5.69 59.8Q4.91 59.2 3.6 59.2Q2.29 59.2 1.51 59.8Q1.19 60.04 1 60.36Q0.73 60.83 0.73 61.46Q0.73 61.97 0.93 62.4Q0.99 62.53 1.07 62.66Q1.21 62.86 1.38 63.02Q1.65 63.28 2.02 63.43Q1.65 63.55 1.36 63.76Q1.12 63.94 0.94 64.19Q0.86 64.29 0.79 64.4Q0.52 64.88 0.52 65.51Q0.52 66.19 0.83 66.69Q1.02 67.01 1.33 67.25ZM9.29 67.48Q9.92 67.87 10.8 67.87Q11.67 67.87 12.3 67.48Q12.73 67.21 13.05 66.75Q13.82 65.63 13.82 63.52Q13.82 61.39 13.05 60.3Q12.76 59.88 12.37 59.62Q11.72 59.2 10.8 59.2Q9.89 59.2 9.26 59.61Q8.85 59.87 8.55 60.3Q7.77 61.39 7.77 63.53Q7.77 65.63 8.55 66.75Q8.86 67.21 9.29 67.48ZM16 64.09Q16.45 64.37 17.08 64.37Q17.71 64.37 18.17 64.09Q18.42 63.93 18.62 63.68Q19.17 62.99 19.17 61.78Q19.17 60.57 18.61 59.88Q18.4 59.63 18.14 59.47Q17.69 59.2 17.08 59.2Q16.47 59.2 16.03 59.47Q15.76 59.63 15.55 59.88Q15 60.57 15 61.78Q15 62.99 15.55 63.68Q15.74 63.93 16 64.09ZM17.51 63.42Q17.33 63.52 17.08 63.52Q16.83 63.52 16.64 63.41Q16.44 63.31 16.3 63.09Q16.02 62.67 16.02 61.78Q16.02 60.9 16.3 60.47Q16.44 60.25 16.65 60.14Q16.84 60.04 17.08 60.04Q17.32 60.04 17.51 60.13Q17.72 60.24 17.87 60.47Q18.15 60.9 18.15 61.78Q18.15 62.65 17.87 63.09Q17.72 63.31 17.51 63.42ZM4.85 62.61Q4.4 62.99 3.6 62.99Q2.79 62.99 2.34 62.61Q2.2 62.49 2.11 62.34Q1.9 62.02 1.9 61.57Q1.9 61.15 2.09 60.84Q2.19 60.68 2.34 60.55Q2.79 60.18 3.6 60.18Q4.4 60.18 4.85 60.55Q5.01 60.69 5.11 60.86Q5.3 61.16 5.3 61.57Q5.3 62.01 5.1 62.33Q5 62.49 4.85 62.61ZM11.58 66.65Q11.25 66.84 10.8 66.84Q10.35 66.84 10.01 66.65Q9.67 66.45 9.44 66.04Q8.99 65.24 8.99 63.52Q8.99 61.81 9.44 61.02Q9.66 60.63 10 60.43Q10.34 60.23 10.8 60.23Q11.28 60.23 11.63 60.45Q11.95 60.64 12.16 61.02Q12.59 61.8 12.59 63.52Q12.59 65.24 12.15 66.04Q11.93 66.45 11.58 66.65ZM21.89 67.6Q22.34 67.87 22.95 67.87Q23.59 67.87 24.05 67.58Q24.29 67.43 24.48 67.19Q25.04 66.51 25.04 65.28Q25.04 64.08 24.48 63.39Q24.29 63.14 24.03 62.99Q23.58 62.7 22.95 62.7Q22.35 62.7 21.91 62.97Q21.64 63.13 21.43 63.39Q20.88 64.08 20.88 65.28Q20.88 66.51 21.43 67.19Q21.63 67.44 21.89 67.6ZM23.38 66.94Q23.19 67.03 22.95 67.03Q22.71 67.03 22.52 66.94Q22.31 66.83 22.16 66.6Q21.88 66.17 21.88 65.28Q21.88 64.41 22.16 63.98Q22.31 63.76 22.52 63.65Q22.71 63.55 22.95 63.55Q23.19 63.55 23.38 63.65Q23.59 63.76 23.73 63.99Q24.02 64.42 24.02 65.28Q24.02 66.17 23.73 66.6Q23.59 66.83 23.38 66.94ZM5.24 66.31Q4.8 66.89 3.6 66.89Q2.4 66.89 1.95 66.31Q1.69 65.97 1.69 65.43Q1.69 64.89 1.95 64.55Q2.04 64.43 2.17 64.34Q2.66 63.98 3.6 63.98Q4.8 63.98 5.25 64.56Q5.5 64.89 5.5 65.43Q5.5 65.97 5.24 66.31Z" fill="#2B3034" fill-opacity="0.400000" fill-rule="evenodd"/>
	<path id="100%" d="M24.33 8.6L25.15 9.08L30.1 0.48L29.29 0L24.33 8.6ZM9.29 8.48Q9.92 8.87 10.8 8.87Q11.67 8.87 12.3 8.48Q12.73 8.21 13.05 7.75Q13.82 6.63 13.82 4.52Q13.82 2.39 13.05 1.3Q12.76 0.88 12.37 0.62Q11.72 0.2 10.8 0.2Q9.89 0.2 9.26 0.61Q8.85 0.87 8.55 1.3Q7.77 2.39 7.77 4.53Q7.77 6.63 8.55 7.75Q8.86 8.21 9.29 8.48ZM16.49 8.48Q17.12 8.87 18 8.87Q18.87 8.87 19.5 8.48Q19.93 8.21 20.25 7.75Q21.02 6.63 21.02 4.52Q21.02 2.39 20.25 1.3Q19.96 0.88 19.57 0.62Q18.92 0.2 18 0.2Q17.09 0.2 16.46 0.61Q16.05 0.87 15.75 1.3Q14.97 2.39 14.97 4.53Q14.97 6.63 15.75 7.75Q16.06 8.21 16.49 8.48ZM23.2 5.09Q23.65 5.37 24.28 5.37Q24.91 5.37 25.37 5.09Q25.62 4.93 25.82 4.68Q26.37 3.99 26.37 2.78Q26.37 1.57 25.81 0.88Q25.6 0.63 25.34 0.47Q24.89 0.2 24.28 0.2Q23.67 0.2 23.23 0.47Q22.96 0.63 22.75 0.88Q22.2 1.57 22.2 2.78Q22.2 3.99 22.75 4.68Q22.94 4.93 23.2 5.09ZM1.4 7.72L1.4 8.77L6.36 8.77L6.36 7.72L4.55 7.72L4.55 0.31L3.68 0.31L1.32 1.76L1.82 2.68L3.32 1.75L3.32 7.72L1.4 7.72ZM24.71 4.42Q24.53 4.52 24.28 4.52Q24.03 4.52 23.84 4.41Q23.64 4.31 23.5 4.09Q23.22 3.67 23.22 2.78Q23.22 1.9 23.5 1.47Q23.64 1.25 23.85 1.14Q24.04 1.04 24.28 1.04Q24.52 1.04 24.71 1.13Q24.92 1.24 25.07 1.47Q25.35 1.9 25.35 2.78Q25.35 3.65 25.07 4.09Q24.92 4.31 24.71 4.42ZM11.58 7.65Q11.25 7.84 10.8 7.84Q10.35 7.84 10.01 7.65Q9.67 7.45 9.44 7.04Q8.99 6.24 8.99 4.52Q8.99 2.81 9.44 2.02Q9.66 1.63 10 1.43Q10.34 1.23 10.8 1.23Q11.28 1.23 11.63 1.45Q11.95 1.64 12.16 2.02Q12.59 2.8 12.59 4.52Q12.59 6.24 12.15 7.04Q11.93 7.45 11.58 7.65ZM18.78 7.65Q18.45 7.84 18 7.84Q17.55 7.84 17.21 7.65Q16.87 7.45 16.64 7.04Q16.19 6.24 16.19 4.52Q16.19 2.81 16.64 2.02Q16.86 1.63 17.2 1.43Q17.54 1.23 18 1.23Q18.48 1.23 18.83 1.45Q19.15 1.64 19.36 2.02Q19.79 2.8 19.79 4.52Q19.79 6.24 19.35 7.04Q19.13 7.45 18.78 7.65ZM29.09 8.6Q29.54 8.87 30.15 8.87Q30.79 8.87 31.25 8.58Q31.49 8.43 31.68 8.19Q32.24 7.51 32.24 6.28Q32.24 5.08 31.68 4.39Q31.49 4.14 31.23 3.98Q30.78 3.7 30.15 3.7Q29.55 3.7 29.11 3.97Q28.84 4.13 28.63 4.39Q28.08 5.08 28.08 6.28Q28.08 7.51 28.63 8.19Q28.83 8.44 29.09 8.6ZM30.58 7.94Q30.39 8.03 30.15 8.03Q29.91 8.03 29.72 7.94Q29.51 7.83 29.36 7.6Q29.08 7.17 29.08 6.28Q29.08 5.41 29.36 4.98Q29.51 4.76 29.72 4.65Q29.91 4.55 30.15 4.55Q30.39 4.55 30.58 4.65Q30.79 4.76 30.93 4.99Q31.22 5.42 31.22 6.28Q31.22 7.17 30.93 7.6Q30.79 7.83 30.58 7.94Z" fill="#2B3034" fill-opacity="0.400000" fill-rule="evenodd"/>
</svg>
