<svg width="60.000000" height="60.000000" viewBox="0 0 60 60" fill="none" xmlns="http://www.w3.org/2000/svg" xmlns:xlink="http://www.w3.org/1999/xlink">
	<desc>
			Created with Pixso.
	</desc>
	<defs/>
	<g opacity="0.210000">
		<mask id="mask_1_26338" fill="white">
			<path id="Circle 2" d="M30 0L23 0C10.2969 0 0 10.2975 0 23L0 37C0 49.7025 10.2969 60 23 60L30 60L30.0117 60L37 60C49.7031 60 60 49.7025 60 37L60 23C60 10.2975 49.7031 0 37 0L30 0Z" clip-rule="evenodd" fill="" fill-opacity="1.000000" fill-rule="evenodd"/>
		</mask>
		<path id="Circle 2" d="M30 0L23 0C10.2969 0 0 10.2975 0 23L0 37C0 49.7025 10.2969 60 23 60L30 60L30.0117 60L37 60C49.7031 60 60 49.7025 60 37L60 23C60 10.2975 49.7031 0 37 0L30 0Z" clip-rule="evenodd" fill="#8280FF" fill-opacity="1.000000" fill-rule="evenodd" mask="url(#mask_1_26338)"/>
		<path id="Circle 2" d="" fill="#979797" fill-opacity="0.000000" fill-rule="nonzero"/>
	</g>
	<g opacity="0.587821">
		<path id="Combined Shape" d="M20.668 23.3334C20.668 26.2788 23.0547 28.6666 26 28.6666C28.9453 28.6666 31.3359 26.2788 31.3359 23.3334C31.3359 20.3878 28.9453 18 26 18C23.0547 18 20.668 20.3878 20.668 23.3334ZM34 28.6666C34 30.8759 35.793 32.6666 38 32.6666C40.2109 32.6666 42 30.8759 42 28.6666C42 26.4575 40.2109 24.6666 38 24.6666C35.793 24.6666 34 26.4575 34 28.6666Z" clip-rule="evenodd" fill="#8280FF" fill-opacity="1.000000" fill-rule="evenodd"/>
	</g>
	<path id="Combined Shape" d="M25.9766 31.3334C19.6836 31.3334 14.5195 34.5687 14 40.9324C13.9727 41.2789 14.6367 42 14.9688 42L36.9961 42C37.9961 42 38.0117 41.194 37.9961 40.9333C37.6055 34.391 32.3633 31.3334 25.9766 31.3334ZM40.1328 42.0001L45.2734 42.0001C46 42.0001 46.0078 41.3955 46 41.2001C45.7188 36.3469 42.0117 34.0505 37.4688 34.0009C39.1406 36.2291 40.1328 38.9988 40.1328 42.0001Z" clip-rule="evenodd" fill="#8280FF" fill-opacity="1.000000" fill-rule="evenodd"/>
</svg>
