<svg width="44.000000" height="44.000000" viewBox="0 0 44 44" fill="none" xmlns="http://www.w3.org/2000/svg" xmlns:xlink="http://www.w3.org/1999/xlink">
	<desc>
			Created with Pixso.
	</desc>
	<defs/>
	<path id="Oval" d="M22 44C9.85 44 0 34.15 0 22C0 9.84 9.85 0 22 0C34.14 0 44 9.84 44 22C44 34.15 34.14 44 22 44Z" fill="#F9F9F9" fill-opacity="1.000000" fill-rule="evenodd"/>
	<path id="Oval" d="M0 22C0 9.84 9.85 0 22 0C34.14 0 44 9.84 44 22C44 34.15 34.14 44 22 44C9.85 44 0 34.15 0 22Z" stroke="#979797" stroke-opacity="0" stroke-width="0.000000"/>
	<path id="Path" d="" fill="#4379EE" fill-opacity="0" fill-rule="nonzero"/>
	<path id="Path" d="M29.19 22.38C30.48 21.08 30.8 19.1 29.98 17.46C29.37 16.24 28.21 15.39 26.86 15.17C25.51 14.95 24.14 15.39 23.17 16.36L22 17.53L20.82 16.36C19.85 15.39 18.48 14.95 17.13 15.17C15.78 15.39 14.62 16.24 14.01 17.46C13.19 19.1 13.51 21.08 14.8 22.38L22 29.88L29.19 22.38Z" stroke="#F93C65" stroke-opacity="1.000000" stroke-width="1.500000" stroke-linejoin="round"/>
</svg>
